<svg width="268" height="90" viewBox="0 0 268 90" fill="none" xmlns="http://www.w3.org/2000/svg">
<rect width="268" height="90" rx="45" fill="#0B182D"/>
<path fill-rule="evenodd" clip-rule="evenodd" d="M46.5 73.5C62.2401 73.5 75 60.7401 75 45C75 29.2599 62.2401 16.5 46.5 16.5C30.7599 16.5 18 29.2599 18 45C18 60.7401 30.7599 73.5 46.5 73.5ZM36.1492 59.1715L37.5445 56.7965C37.6368 56.6628 37.7006 56.5117 37.7321 56.3523C37.7636 56.193 37.7621 56.0289 37.7276 55.8702C37.6932 55.7115 37.6266 55.5615 37.5319 55.4296C37.4372 55.2976 37.3164 55.1865 37.177 55.1031C37.0377 55.0197 36.8827 54.9658 36.7217 54.9446C36.5606 54.9235 36.397 54.9356 36.2408 54.9803C36.0847 55.0249 35.9393 55.1011 35.8138 55.2041C35.6882 55.3072 35.5852 55.4349 35.5109 55.5793L34.1008 57.9543C33.9423 58.2267 33.897 58.5503 33.9748 58.8557C34.0525 59.1611 34.247 59.4237 34.5164 59.5871C34.7027 59.691 34.9118 59.7471 35.125 59.7504C35.331 59.7497 35.5334 59.6962 35.7128 59.5948C35.8921 59.4934 36.0424 59.3477 36.1492 59.1715ZM55.3422 50.2504H62.4375C62.7524 50.2504 63.0545 50.3755 63.2772 50.5982C63.4999 50.8209 63.625 51.123 63.625 51.4379C63.625 51.7529 63.4999 52.0549 63.2772 52.2776C63.0545 52.5003 62.7524 52.6254 62.4375 52.6254H56.7523L59.8992 57.9543C60.0577 58.2267 60.103 58.5503 60.0252 58.8557C59.9475 59.1611 59.753 59.4237 59.4836 59.5871C59.2973 59.691 59.0882 59.7471 58.875 59.7504C58.669 59.7497 58.4666 59.6962 58.2872 59.5948C58.1079 59.4934 57.9576 59.3477 57.8508 59.1715L48.7367 43.734C48.6566 43.6008 48.6038 43.453 48.5814 43.2992C48.5589 43.1453 48.5673 42.9886 48.606 42.838C48.6446 42.6875 48.7129 42.5461 48.8067 42.4222C48.9005 42.2982 49.018 42.1942 49.1523 42.116C49.2867 42.0356 49.4357 41.9825 49.5906 41.9599C49.7456 41.9373 49.9035 41.9455 50.0552 41.9841C50.207 42.0227 50.3496 42.091 50.4749 42.185C50.6002 42.2789 50.7056 42.3968 50.7852 42.5317L55.3422 50.2504ZM41.4188 50.2504H49.1523C49.4673 50.2504 49.7693 50.3755 49.992 50.5982C50.2147 50.8209 50.3398 51.123 50.3398 51.4379C50.3398 51.7529 50.2147 52.0549 49.992 52.2776C49.7693 52.5003 49.4673 52.6254 49.1523 52.6254H31.5625C31.2476 52.6254 30.9455 52.5003 30.7228 52.2776C30.5001 52.0549 30.375 51.7529 30.375 51.4379C30.375 51.123 30.5001 50.8209 30.7228 50.5982C30.9455 50.3755 31.2476 50.2504 31.5625 50.2504H38.6578L45.6195 38.4645L42.4133 33.0465C42.3334 32.912 42.2807 32.7631 42.2583 32.6082C42.236 32.4534 42.2443 32.2956 42.2829 32.144C42.3215 31.9924 42.3896 31.8499 42.4833 31.7246C42.577 31.5992 42.6944 31.4936 42.8289 31.4137C42.9634 31.3338 43.1123 31.2811 43.2672 31.2588C43.422 31.2364 43.5798 31.2447 43.7314 31.2833C43.883 31.3219 44.0255 31.39 44.1509 31.4837C44.2762 31.5774 44.3818 31.6948 44.4617 31.8293L47 36.134L49.5383 31.8442C49.6997 31.5725 49.9624 31.3761 50.2686 31.2982C50.5748 31.2202 50.8995 31.2671 51.1711 31.4285C51.4427 31.5899 51.6391 31.8527 51.7171 32.1589C51.795 32.4651 51.7481 32.7897 51.5867 33.0613L48.0242 39.0879H48.0094L41.4188 50.2504Z" fill="white"/>
<path d="M95.64 30V15.9H100.62C102.94 15.9 104.727 16.5067 105.98 17.72C107.247 18.9333 107.88 20.6733 107.88 22.94C107.88 25.2067 107.247 26.9533 105.98 28.18C104.727 29.3933 102.94 30 100.62 30H95.64ZM97.72 28.26H100.5C103.98 28.26 105.72 26.4867 105.72 22.94C105.72 19.4067 103.98 17.64 100.5 17.64H97.72V28.26ZM114.68 30.18C113.693 30.18 112.84 29.9733 112.12 29.56C111.4 29.1467 110.84 28.5667 110.44 27.82C110.053 27.06 109.86 26.16 109.86 25.12C109.86 24.08 110.053 23.1867 110.44 22.44C110.84 21.68 111.4 21.0933 112.12 20.68C112.84 20.2667 113.693 20.06 114.68 20.06C115.64 20.06 116.48 20.2667 117.2 20.68C117.92 21.0933 118.48 21.68 118.88 22.44C119.28 23.1867 119.48 24.08 119.48 25.12C119.48 26.16 119.28 27.06 118.88 27.82C118.48 28.5667 117.92 29.1467 117.2 29.56C116.48 29.9733 115.64 30.18 114.68 30.18ZM114.68 28.62C115.506 28.62 116.173 28.32 116.68 27.72C117.186 27.12 117.44 26.2533 117.44 25.12C117.44 23.9867 117.186 23.1267 116.68 22.54C116.173 21.94 115.506 21.64 114.68 21.64C113.84 21.64 113.166 21.94 112.66 22.54C112.153 23.1267 111.9 23.9867 111.9 25.12C111.9 26.2533 112.153 27.12 112.66 27.72C113.166 28.32 113.84 28.62 114.68 28.62ZM124.212 30L120.492 20.24H122.572L125.192 27.64L127.892 20.24H129.452L132.112 27.68L134.772 20.24H136.752L133.032 30H131.192L128.612 23.02L126.052 30H124.212ZM138.486 30V20.24H140.446V21.86C140.78 21.2733 141.233 20.8267 141.806 20.52C142.393 20.2133 143.046 20.06 143.766 20.06C146.073 20.06 147.226 21.3667 147.226 23.98V30H145.206V24.1C145.206 23.26 145.04 22.6467 144.706 22.26C144.386 21.8733 143.88 21.68 143.186 21.68C142.373 21.68 141.72 21.94 141.226 22.46C140.746 22.9667 140.506 23.64 140.506 24.48V30H138.486ZM153.19 30.18C152.123 30.18 151.323 29.88 150.79 29.28C150.27 28.68 150.01 27.8 150.01 26.64V15.9H152.03V26.52C152.03 27.84 152.57 28.5 153.65 28.5C153.81 28.5 153.957 28.4933 154.09 28.48C154.237 28.4667 154.383 28.44 154.53 28.4L154.49 30.02C154.037 30.1267 153.603 30.18 153.19 30.18ZM160.265 30.18C159.279 30.18 158.425 29.9733 157.705 29.56C156.985 29.1467 156.425 28.5667 156.025 27.82C155.639 27.06 155.445 26.16 155.445 25.12C155.445 24.08 155.639 23.1867 156.025 22.44C156.425 21.68 156.985 21.0933 157.705 20.68C158.425 20.2667 159.279 20.06 160.265 20.06C161.225 20.06 162.065 20.2667 162.785 20.68C163.505 21.0933 164.065 21.68 164.465 22.44C164.865 23.1867 165.065 24.08 165.065 25.12C165.065 26.16 164.865 27.06 164.465 27.82C164.065 28.5667 163.505 29.1467 162.785 29.56C162.065 29.9733 161.225 30.18 160.265 30.18ZM160.265 28.62C161.092 28.62 161.759 28.32 162.265 27.72C162.772 27.12 163.025 26.2533 163.025 25.12C163.025 23.9867 162.772 23.1267 162.265 22.54C161.759 21.94 161.092 21.64 160.265 21.64C159.425 21.64 158.752 21.94 158.245 22.54C157.739 23.1267 157.485 23.9867 157.485 25.12C157.485 26.2533 157.739 27.12 158.245 27.72C158.752 28.32 159.425 28.62 160.265 28.62ZM170.454 30.18C169.774 30.18 169.167 30.0467 168.634 29.78C168.101 29.5133 167.674 29.1533 167.354 28.7C167.047 28.2467 166.894 27.7333 166.894 27.16C166.894 26.44 167.074 25.8733 167.434 25.46C167.807 25.0467 168.414 24.7467 169.254 24.56C170.107 24.3733 171.254 24.28 172.694 24.28H173.374V23.76C173.374 23 173.214 22.4533 172.894 22.12C172.574 21.7867 172.047 21.62 171.314 21.62C170.754 21.62 170.194 21.7067 169.634 21.88C169.074 22.04 168.501 22.3 167.914 22.66L167.294 21.24C167.801 20.88 168.434 20.5933 169.194 20.38C169.954 20.1667 170.681 20.06 171.374 20.06C172.707 20.06 173.694 20.38 174.334 21.02C174.974 21.6467 175.294 22.6333 175.294 23.98V30H173.394V28.38C173.154 28.94 172.781 29.38 172.274 29.7C171.767 30.02 171.161 30.18 170.454 30.18ZM170.854 28.74C171.574 28.74 172.174 28.4867 172.654 27.98C173.134 27.4733 173.374 26.8333 173.374 26.06V25.52H172.714C171.741 25.52 170.974 25.5667 170.414 25.66C169.867 25.7533 169.474 25.9133 169.234 26.14C169.007 26.3533 168.894 26.6533 168.894 27.04C168.894 27.5467 169.067 27.96 169.414 28.28C169.761 28.5867 170.241 28.74 170.854 28.74ZM181.796 30.18C180.943 30.18 180.19 29.98 179.536 29.58C178.896 29.1667 178.396 28.58 178.036 27.82C177.676 27.06 177.496 26.16 177.496 25.12C177.496 24.08 177.676 23.1867 178.036 22.44C178.396 21.68 178.896 21.0933 179.536 20.68C180.176 20.2667 180.93 20.06 181.796 20.06C182.53 20.06 183.183 20.22 183.756 20.54C184.33 20.86 184.756 21.2933 185.036 21.84V15.9H187.056V30H185.076V28.3C184.796 28.8867 184.363 29.3467 183.776 29.68C183.203 30.0133 182.543 30.18 181.796 30.18ZM182.316 28.62C183.143 28.62 183.81 28.32 184.316 27.72C184.823 27.12 185.076 26.2533 185.076 25.12C185.076 23.9867 184.823 23.1267 184.316 22.54C183.81 21.94 183.143 21.64 182.316 21.64C181.476 21.64 180.803 21.94 180.296 22.54C179.79 23.1267 179.536 23.9867 179.536 25.12C179.536 26.2533 179.79 27.12 180.296 27.72C180.803 28.32 181.476 28.62 182.316 28.62ZM199.387 30.18C198.4 30.18 197.547 29.9733 196.827 29.56C196.107 29.1467 195.547 28.5667 195.147 27.82C194.76 27.06 194.567 26.16 194.567 25.12C194.567 24.08 194.76 23.1867 195.147 22.44C195.547 21.68 196.107 21.0933 196.827 20.68C197.547 20.2667 198.4 20.06 199.387 20.06C200.347 20.06 201.187 20.2667 201.907 20.68C202.627 21.0933 203.187 21.68 203.587 22.44C203.987 23.1867 204.187 24.08 204.187 25.12C204.187 26.16 203.987 27.06 203.587 27.82C203.187 28.5667 202.627 29.1467 201.907 29.56C201.187 29.9733 200.347 30.18 199.387 30.18ZM199.387 28.62C200.213 28.62 200.88 28.32 201.387 27.72C201.893 27.12 202.147 26.2533 202.147 25.12C202.147 23.9867 201.893 23.1267 201.387 22.54C200.88 21.94 200.213 21.64 199.387 21.64C198.547 21.64 197.873 21.94 197.367 22.54C196.86 23.1267 196.607 23.9867 196.607 25.12C196.607 26.2533 196.86 27.12 197.367 27.72C197.873 28.32 198.547 28.62 199.387 28.62ZM206.455 30V20.24H208.415V21.86C208.748 21.2733 209.202 20.8267 209.775 20.52C210.362 20.2133 211.015 20.06 211.735 20.06C214.042 20.06 215.195 21.3667 215.195 23.98V30H213.175V24.1C213.175 23.26 213.008 22.6467 212.675 22.26C212.355 21.8733 211.848 21.68 211.155 21.68C210.342 21.68 209.688 21.94 209.195 22.46C208.715 22.9667 208.475 23.64 208.475 24.48V30H206.455Z" fill="white"/>
<path d="M89.028 70L97.96 50.26H100.9L109.832 70H106.192L104.232 65.436H94.6L92.668 70H89.028ZM99.388 54.152L95.832 62.58H103L99.444 54.152H99.388ZM111.656 75.04V56.308H115.072V58.492C115.464 57.7453 116.052 57.148 116.836 56.7C117.639 56.252 118.544 56.028 119.552 56.028C120.747 56.028 121.792 56.3173 122.688 56.896C123.603 57.4747 124.312 58.296 124.816 59.36C125.32 60.4053 125.572 61.6653 125.572 63.14C125.572 64.596 125.32 65.8653 124.816 66.948C124.312 68.012 123.612 68.8333 122.716 69.412C121.82 69.9907 120.765 70.28 119.552 70.28C118.581 70.28 117.704 70.0747 116.92 69.664C116.155 69.2347 115.567 68.6653 115.156 67.956V75.04H111.656ZM118.572 67.62C119.617 67.62 120.457 67.2467 121.092 66.5C121.727 65.7347 122.044 64.6147 122.044 63.14C122.044 61.6467 121.727 60.536 121.092 59.808C120.457 59.0613 119.617 58.688 118.572 58.688C117.527 58.688 116.687 59.0613 116.052 59.808C115.417 60.536 115.1 61.6467 115.1 63.14C115.1 64.6147 115.417 65.7347 116.052 66.5C116.687 67.2467 117.527 67.62 118.572 67.62ZM128.445 75.04V56.308H131.861V58.492C132.253 57.7453 132.841 57.148 133.625 56.7C134.428 56.252 135.333 56.028 136.341 56.028C137.536 56.028 138.581 56.3173 139.477 56.896C140.392 57.4747 141.101 58.296 141.605 59.36C142.109 60.4053 142.361 61.6653 142.361 63.14C142.361 64.596 142.109 65.8653 141.605 66.948C141.101 68.012 140.401 68.8333 139.505 69.412C138.609 69.9907 137.554 70.28 136.341 70.28C135.37 70.28 134.493 70.0747 133.709 69.664C132.944 69.2347 132.356 68.6653 131.945 67.956V75.04H128.445ZM135.361 67.62C136.406 67.62 137.246 67.2467 137.881 66.5C138.516 65.7347 138.833 64.6147 138.833 63.14C138.833 61.6467 138.516 60.536 137.881 59.808C137.246 59.0613 136.406 58.688 135.361 58.688C134.316 58.688 133.476 59.0613 132.841 59.808C132.206 60.536 131.889 61.6467 131.889 63.14C131.889 64.6147 132.206 65.7347 132.841 66.5C133.476 67.2467 134.316 67.62 135.361 67.62ZM159.921 70.28C158.372 70.28 156.934 70.084 155.609 69.692C154.284 69.2813 153.164 68.7307 152.249 68.04L153.341 65.212C154.256 65.8653 155.254 66.3693 156.337 66.724C157.438 67.0787 158.633 67.256 159.921 67.256C161.396 67.256 162.469 67.0133 163.141 66.528C163.813 66.024 164.149 65.38 164.149 64.596C164.149 63.9427 163.906 63.4293 163.421 63.056C162.954 62.6827 162.142 62.3747 160.985 62.132L157.905 61.488C154.396 60.7413 152.641 58.94 152.641 56.084C152.641 54.852 152.968 53.7787 153.621 52.864C154.274 51.9493 155.18 51.24 156.337 50.736C157.494 50.232 158.829 49.98 160.341 49.98C161.685 49.98 162.945 50.1853 164.121 50.596C165.297 50.988 166.277 51.548 167.061 52.276L165.969 54.964C164.42 53.6573 162.534 53.004 160.313 53.004C159.025 53.004 158.017 53.2747 157.289 53.816C156.561 54.3573 156.197 55.0667 156.197 55.944C156.197 56.616 156.421 57.1573 156.869 57.568C157.317 57.96 158.082 58.268 159.165 58.492L162.217 59.136C164.065 59.528 165.437 60.144 166.333 60.984C167.248 61.824 167.705 62.944 167.705 64.344C167.705 65.52 167.388 66.556 166.753 67.452C166.118 68.348 165.213 69.048 164.037 69.552C162.88 70.0373 161.508 70.28 159.921 70.28ZM176.58 70.28C172.959 70.28 171.148 68.488 171.148 64.904V58.94H168.516V56.308H171.148V52.22H174.648V56.308H178.792V58.94H174.648V64.708C174.648 65.604 174.844 66.276 175.236 66.724C175.628 67.172 176.263 67.396 177.14 67.396C177.402 67.396 177.672 67.368 177.952 67.312C178.232 67.2373 178.522 67.1627 178.82 67.088L179.352 69.664C179.016 69.8507 178.587 70 178.064 70.112C177.56 70.224 177.066 70.28 176.58 70.28ZM187.162 70.28C185.743 70.28 184.511 69.9907 183.466 69.412C182.42 68.8333 181.608 68.012 181.03 66.948C180.451 65.8653 180.162 64.596 180.162 63.14C180.162 61.684 180.451 60.424 181.03 59.36C181.608 58.296 182.42 57.4747 183.466 56.896C184.511 56.3173 185.743 56.028 187.162 56.028C188.58 56.028 189.812 56.3173 190.858 56.896C191.903 57.4747 192.715 58.296 193.294 59.36C193.872 60.424 194.162 61.684 194.162 63.14C194.162 64.596 193.872 65.8653 193.294 66.948C192.715 68.012 191.903 68.8333 190.858 69.412C189.812 69.9907 188.58 70.28 187.162 70.28ZM187.162 67.62C188.207 67.62 189.047 67.2467 189.682 66.5C190.316 65.7347 190.634 64.6147 190.634 63.14C190.634 61.6467 190.316 60.536 189.682 59.808C189.047 59.0613 188.207 58.688 187.162 58.688C186.116 58.688 185.276 59.0613 184.642 59.808C184.007 60.536 183.69 61.6467 183.69 63.14C183.69 64.6147 184.007 65.7347 184.642 66.5C185.276 67.2467 186.116 67.62 187.162 67.62ZM197.05 70V56.308H200.466V58.716C201.138 57.092 202.576 56.196 204.778 56.028L205.842 55.944L206.066 58.912L204.05 59.108C201.754 59.332 200.606 60.508 200.606 62.636V70H197.05ZM214.545 70.28C212.995 70.28 211.661 69.9907 210.541 69.412C209.421 68.8333 208.553 68.012 207.937 66.948C207.339 65.884 207.041 64.624 207.041 63.168C207.041 61.7493 207.33 60.508 207.909 59.444C208.506 58.38 209.318 57.5493 210.345 56.952C211.39 56.336 212.575 56.028 213.901 56.028C215.842 56.028 217.373 56.644 218.493 57.876C219.631 59.108 220.201 60.788 220.201 62.916V63.952H210.401C210.662 66.3973 212.062 67.62 214.601 67.62C215.366 67.62 216.131 67.508 216.897 67.284C217.662 67.0413 218.362 66.668 218.997 66.164L219.977 68.516C219.323 69.0573 218.502 69.4867 217.513 69.804C216.523 70.1213 215.534 70.28 214.545 70.28ZM214.041 58.408C213.014 58.408 212.183 58.7253 211.549 59.36C210.914 59.9947 210.531 60.8533 210.401 61.936H217.289C217.214 60.7973 216.897 59.9293 216.337 59.332C215.795 58.716 215.03 58.408 214.041 58.408Z" fill="white"/>
</svg>
