<svg width="424" height="388" viewBox="0 0 424 388" fill="none" xmlns="http://www.w3.org/2000/svg">
<path d="M413.09 255.262H423.042C423.572 255.262 423.999 255.689 423.999 256.219V355.304C423.999 355.834 423.572 356.261 423.042 356.261H413.09C412.56 356.261 412.133 355.834 412.133 355.304V256.219C412.133 255.689 412.56 255.262 413.09 255.262Z" fill="#3F4B5B"/>
<path d="M0.956937 234.713H10.9092C11.4394 234.713 11.8661 235.14 11.8661 235.67V296.862C11.8661 297.393 11.4392 297.819 10.9092 297.819H0.956937C0.426777 297.819 0 297.393 0 296.862V235.67C0 235.14 0.426954 234.713 0.956937 234.713Z" fill="#3F4B5B"/>
<path d="M0.956937 317.041H10.9092C11.4394 317.041 11.8661 317.468 11.8661 317.998V379.19C11.8661 379.72 11.4392 380.147 10.9092 380.147H0.956937C0.426777 380.147 0 379.72 0 379.19V317.998C0 317.468 0.426954 317.041 0.956937 317.041Z" fill="#3F4B5B"/>
<path d="M10.9092 172.211H0.956949C0.428441 172.211 0 172.64 0 173.168V204.046C0 204.574 0.428441 205.003 0.956949 205.003H10.9092C11.4377 205.003 11.8662 204.574 11.8662 204.046V173.168C11.8662 172.64 11.4377 172.211 10.9092 172.211Z" fill="#3F4B5B"/>
<path d="M413.09 256.506H423.042C423.572 256.506 423.999 256.933 423.999 257.463V354.443C423.999 354.973 423.572 355.4 423.042 355.4H413.09C412.56 355.4 412.133 354.973 412.133 354.443V257.463C412.133 256.933 412.56 256.506 413.09 256.506Z" fill="url(#paint0_linear_2225_18982)"/>
<path d="M1.06241 235.957H11.0147C11.5448 235.957 11.9716 236.384 11.9716 236.914V296.001C11.9716 296.531 11.5446 296.958 11.0147 296.958H1.06241C0.532245 296.958 0.105469 296.531 0.105469 296.001V236.914C0.105469 236.384 0.532423 235.957 1.06241 235.957Z" fill="url(#paint1_linear_2225_18982)"/>
<path d="M0.956937 318.285H10.9092C11.4394 318.285 11.8661 318.712 11.8661 319.242V378.329C11.8661 378.859 11.4392 379.286 10.9092 379.286H0.956937C0.426777 379.286 0 378.859 0 378.329V319.242C0 318.712 0.426954 318.285 0.956937 318.285Z" fill="url(#paint2_linear_2225_18982)"/>
<path d="M10.9092 173.456H0.956949C0.428441 173.456 0 173.884 0 174.413V203.185C0 203.714 0.428441 204.142 0.956949 204.142H10.9092C11.4377 204.142 11.8662 203.714 11.8662 203.185V174.413C11.8662 173.884 11.4377 173.456 10.9092 173.456Z" fill="url(#paint3_linear_2225_18982)"/>
<path d="M355.66 0.587402H68.4472C32.3244 0.587402 3.04102 29.8707 3.04102 65.9936V791.324C3.04102 827.446 32.3244 856.73 68.4472 856.73H355.66C391.783 856.73 421.066 827.446 421.066 791.324V65.9936C421.066 29.8707 391.783 0.587402 355.66 0.587402Z" fill="#C8E1F8" stroke="#3F4B5B" stroke-width="1.17549" stroke-linecap="round" stroke-linejoin="round"/>
<g filter="url(#filter0_f_2225_18982)">
<path d="M68.4417 2.88135C33.4369 2.88135 5.33008 30.9882 5.33008 65.993V791.326C5.33008 826.331 33.4369 854.435 68.4417 854.435H355.662C390.667 854.435 418.773 826.331 418.773 791.326V65.993C418.773 30.9882 390.667 2.88135 355.662 2.88135H68.4417Z" fill="#A0B8CE"/>
</g>
<path d="M331.06 0V14.06H336.902V0H331.06ZM2.45117 85.4139V91.2558H421.653V85.4139H2.45117ZM2.45117 767.551V773.393H421.653V767.551H2.45117ZM87.2016 845.21V857.316H93.0435V845.21H87.2016Z" fill="#819ABB"/>
<path d="M250.35 5.68701H176V11.6093H250.35V5.68701Z" fill="black"/>
<path d="M69.547 5.98096C35.388 5.98096 7.88867 33.4803 7.88867 67.6393V789.677C7.88867 823.836 35.388 851.336 69.547 851.336H354.558C388.717 851.336 416.217 823.836 416.217 789.677V67.6393C416.217 33.4803 388.717 5.98096 354.558 5.98096H250.321C249.672 5.98126 249.045 6.21362 248.554 6.63601C248.062 7.05839 247.737 7.64289 247.639 8.28373V8.40312H247.623H178.728C178.656 7.73785 178.341 7.12263 177.843 6.67558C177.345 6.22852 176.699 5.98115 176.03 5.98096H69.547Z" fill="black" stroke="#434343" stroke-width="0.587748"/>
<path d="M244.924 5.98096H181.427C179.928 5.98096 178.713 7.19601 178.713 8.69486V11.6026C178.713 13.1015 179.928 14.3165 181.427 14.3165H244.924C246.423 14.3165 247.638 13.1015 247.638 11.6026V8.69486C247.638 7.19601 246.423 5.98096 244.924 5.98096Z" fill="black" stroke="#1A1A1A" stroke-width="0.587749" stroke-linecap="round" stroke-linejoin="round"/>
<path d="M183.041 7.68652C181.678 7.68652 180.58 8.78399 180.58 10.1478C180.58 11.5117 181.678 12.6091 183.041 12.6091H243.307C244.671 12.6091 245.768 11.5117 245.768 10.1478C245.768 8.78399 244.671 7.68652 243.307 7.68652H183.041Z" stroke="#292929" stroke-width="0.180802" stroke-linecap="round"/>
<g filter="url(#filter1_f_2225_18982)">
<path d="M245.769 10.1481C245.769 10.5815 245.518 10.9328 245.209 10.9328C244.899 10.9328 244.648 10.5815 244.648 10.1481C244.648 9.71463 244.899 9.36328 245.209 9.36328C245.518 9.36328 245.769 9.71463 245.769 10.1481Z" fill="white"/>
<path d="M180.58 10.1481C180.58 10.5815 180.831 10.9328 181.14 10.9328C181.45 10.9328 181.7 10.5815 181.7 10.1481C181.7 9.71464 181.45 9.36328 181.14 9.36328C180.831 9.36328 180.58 9.71463 180.58 10.1481Z" fill="white"/>
</g>
<g clip-path="url(#clip0_2225_18982)">
<path d="M68.2865 19.9834C43.5576 19.9826 23.5103 40.0289 23.5098 64.7578V793.431C23.509 818.161 43.5566 838.206 68.2865 838.205H356.586C381.315 838.206 401.363 818.161 401.362 793.431V64.7578C401.362 40.0289 381.314 19.9826 356.586 19.9834H299.165C293.933 19.9834 291.226 20.5244 291.226 28.8249C291.226 37.1253 286.083 51.111 267.677 51.111H157.195C138.789 51.111 133.646 37.1253 133.646 28.8249C133.646 20.5244 130.939 19.9834 125.707 19.9834H68.2865Z" fill="#5218FF"/>
<path d="M397.595 351.61C394.773 353.8 344.945 381.877 344.945 444.308C344.945 516.519 408.349 542.066 410.247 542.698C409.955 544.255 400.174 577.685 376.818 611.747C355.991 641.721 334.24 671.647 301.151 671.647C268.062 671.647 259.547 652.427 221.349 652.427C184.124 652.427 170.888 672.28 140.622 672.28C110.355 672.28 89.2366 644.544 64.9552 610.482C36.8297 570.483 14.1055 508.344 14.1055 449.368C14.1055 354.773 75.6118 304.605 136.145 304.605C168.309 304.605 195.121 325.723 215.315 325.723C234.536 325.723 264.51 303.339 301.103 303.339C314.971 303.339 364.799 304.605 397.595 351.61ZM283.731 263.292C298.864 245.337 309.569 220.423 309.569 195.509C309.569 192.054 309.277 188.55 308.645 185.728C284.023 186.653 254.729 202.126 237.066 222.612C223.198 238.378 210.254 263.292 210.254 288.547C210.254 292.342 210.887 296.138 211.179 297.354C212.736 297.646 215.266 297.987 217.796 297.987C239.888 297.987 267.673 283.194 283.731 263.292Z" stroke="url(#paint4_linear_2225_18982)" stroke-width="3.7018" stroke-linejoin="round"/>
<g clip-path="url(#clip1_2225_18982)">
<rect width="377.334" height="1279.81" transform="translate(23.5098 18.8081)" fill="white"/>
<path d="M60.9861 109.255V97.6044H63.1014V102.463H69.1002V97.6044H71.2154V109.255H69.1002V104.231H63.1014V109.255H60.9861ZM77.5519 109.42C76.6375 109.42 75.8498 109.249 75.1888 108.908C74.5278 108.566 74.0155 108.082 73.6519 107.454C73.2994 106.826 73.1231 106.082 73.1231 105.223C73.1231 104.385 73.2939 103.653 73.6354 103.025C73.9879 102.397 74.4672 101.907 75.0731 101.554C75.6901 101.19 76.3896 101.009 77.1719 101.009C78.3176 101.009 79.221 101.372 79.882 102.099C80.5541 102.826 80.8901 103.818 80.8901 105.074V105.685H75.1062C75.2604 107.129 76.0867 107.85 77.585 107.85C78.0367 107.85 78.4884 107.784 78.9401 107.652C79.3918 107.509 79.8049 107.288 80.1795 106.991L80.7579 108.379C80.3723 108.699 79.8876 108.952 79.3037 109.139C78.7197 109.326 78.1358 109.42 77.5519 109.42ZM77.2545 102.413C76.6485 102.413 76.1583 102.601 75.7837 102.975C75.4091 103.35 75.1833 103.857 75.1062 104.496H79.1714C79.1274 103.823 78.9401 103.311 78.6096 102.959C78.2901 102.595 77.8384 102.413 77.2545 102.413ZM85.3354 109.42C84.3769 109.42 83.6663 109.161 83.2036 108.643C82.7519 108.115 82.526 107.343 82.526 106.33V97.6044H84.5917V106.231C84.5917 107.222 85.0104 107.718 85.8476 107.718C85.9688 107.718 86.09 107.712 86.2112 107.701C86.3324 107.69 86.4481 107.668 86.5582 107.635L86.5252 109.271C86.1286 109.371 85.732 109.42 85.3354 109.42ZM90.6126 109.42C89.6541 109.42 88.9435 109.161 88.4808 108.643C88.0291 108.115 87.8032 107.343 87.8032 106.33V97.6044H89.8689V106.231C89.8689 107.222 90.2876 107.718 91.1249 107.718C91.246 107.718 91.3672 107.712 91.4884 107.701C91.6096 107.69 91.7253 107.668 91.8355 107.635L91.8024 109.271C91.4058 109.371 91.0092 109.42 90.6126 109.42ZM96.6849 109.42C95.8476 109.42 95.1205 109.249 94.5036 108.908C93.8866 108.566 93.4074 108.082 93.0658 107.454C92.7243 106.815 92.5535 106.065 92.5535 105.206C92.5535 104.347 92.7243 103.603 93.0658 102.975C93.4074 102.347 93.8866 101.862 94.5036 101.521C95.1205 101.179 95.8476 101.009 96.6849 101.009C97.5222 101.009 98.2493 101.179 98.8663 101.521C99.4833 101.862 99.9625 102.347 100.304 102.975C100.646 103.603 100.816 104.347 100.816 105.206C100.816 106.065 100.646 106.815 100.304 107.454C99.9625 108.082 99.4833 108.566 98.8663 108.908C98.2493 109.249 97.5222 109.42 96.6849 109.42ZM96.6849 107.85C97.3019 107.85 97.7977 107.63 98.1722 107.189C98.5468 106.737 98.7341 106.076 98.7341 105.206C98.7341 104.325 98.5468 103.669 98.1722 103.24C97.7977 102.799 97.3019 102.579 96.6849 102.579C96.068 102.579 95.5722 102.799 95.1976 103.24C94.823 103.669 94.6358 104.325 94.6358 105.206C94.6358 106.076 94.823 106.737 95.1976 107.189C95.5722 107.63 96.068 107.85 96.6849 107.85ZM105.918 109.255L111.189 97.6044H112.925L118.196 109.255H116.048L114.891 106.561H109.206L108.066 109.255H105.918ZM112.032 99.9014L109.934 104.876H114.164L112.065 99.9014H112.032ZM122.96 112.395C122.211 112.395 121.506 112.307 120.845 112.13C120.195 111.965 119.622 111.706 119.126 111.354L119.721 109.916C120.184 110.224 120.679 110.45 121.208 110.593C121.737 110.748 122.266 110.825 122.795 110.825C124.271 110.825 125.009 110.114 125.009 108.693V107.586C124.778 108.037 124.42 108.396 123.935 108.66C123.461 108.924 122.932 109.057 122.348 109.057C121.621 109.057 120.988 108.891 120.448 108.561C119.908 108.219 119.49 107.746 119.192 107.14C118.895 106.534 118.746 105.829 118.746 105.024C118.746 104.22 118.895 103.521 119.192 102.926C119.49 102.32 119.908 101.851 120.448 101.521C120.988 101.179 121.621 101.009 122.348 101.009C122.954 101.009 123.494 101.146 123.968 101.422C124.442 101.686 124.789 102.044 125.009 102.496V101.174H127.025V108.445C127.025 109.756 126.678 110.742 125.984 111.403C125.29 112.064 124.282 112.395 122.96 112.395ZM122.91 107.487C123.549 107.487 124.056 107.266 124.431 106.826C124.805 106.385 124.993 105.785 124.993 105.024C124.993 104.264 124.805 103.669 124.431 103.24C124.056 102.799 123.549 102.579 122.91 102.579C122.271 102.579 121.765 102.799 121.39 103.24C121.015 103.669 120.828 104.264 120.828 105.024C120.828 105.785 121.015 106.385 121.39 106.826C121.765 107.266 122.271 107.487 122.91 107.487ZM133.826 109.42C133.231 109.42 132.696 109.288 132.223 109.024C131.76 108.759 131.413 108.401 131.182 107.949V109.255H129.166V97.6044H131.231V102.364C131.474 101.956 131.821 101.631 132.272 101.389C132.735 101.135 133.253 101.009 133.826 101.009C134.542 101.009 135.164 101.179 135.693 101.521C136.222 101.862 136.635 102.347 136.933 102.975C137.23 103.592 137.379 104.336 137.379 105.206C137.379 106.065 137.23 106.815 136.933 107.454C136.635 108.082 136.216 108.566 135.677 108.908C135.148 109.249 134.531 109.42 133.826 109.42ZM133.247 107.85C133.864 107.85 134.36 107.63 134.735 107.189C135.109 106.737 135.297 106.076 135.297 105.206C135.297 104.325 135.109 103.669 134.735 103.24C134.36 102.799 133.864 102.579 133.247 102.579C132.63 102.579 132.135 102.799 131.76 103.24C131.385 103.669 131.198 104.325 131.198 105.206C131.198 106.076 131.385 106.737 131.76 107.189C132.135 107.63 132.63 107.85 133.247 107.85ZM141.735 109.42C141.151 109.42 140.628 109.31 140.165 109.09C139.713 108.858 139.355 108.55 139.091 108.164C138.838 107.779 138.711 107.343 138.711 106.859C138.711 106.264 138.865 105.796 139.174 105.454C139.482 105.101 139.983 104.848 140.677 104.694C141.371 104.54 142.302 104.462 143.47 104.462H144.049V104.115C144.049 103.565 143.927 103.168 143.685 102.926C143.443 102.683 143.035 102.562 142.462 102.562C142.01 102.562 141.548 102.634 141.074 102.777C140.6 102.909 140.121 103.118 139.636 103.405L139.041 102C139.328 101.802 139.664 101.631 140.049 101.488C140.446 101.334 140.859 101.218 141.289 101.141C141.73 101.053 142.143 101.009 142.528 101.009C143.707 101.009 144.583 101.284 145.156 101.835C145.729 102.375 146.015 103.218 146.015 104.363V109.255H144.082V107.966C143.894 108.418 143.597 108.776 143.189 109.04C142.782 109.293 142.297 109.42 141.735 109.42ZM142.165 107.999C142.705 107.999 143.151 107.812 143.503 107.437C143.867 107.062 144.049 106.589 144.049 106.016V105.652H143.487C142.451 105.652 141.73 105.735 141.322 105.9C140.925 106.054 140.727 106.341 140.727 106.76C140.727 107.123 140.854 107.421 141.107 107.652C141.36 107.883 141.713 107.999 142.165 107.999ZM148.145 109.255V101.174H150.161V102.413C150.403 101.973 150.739 101.631 151.169 101.389C151.599 101.135 152.094 101.009 152.656 101.009C153.868 101.009 154.661 101.537 155.036 102.595C155.289 102.099 155.653 101.714 156.127 101.438C156.6 101.152 157.14 101.009 157.746 101.009C159.564 101.009 160.473 102.116 160.473 104.33V109.255H158.407V104.413C158.407 103.796 158.303 103.344 158.093 103.058C157.895 102.771 157.553 102.628 157.069 102.628C156.529 102.628 156.105 102.821 155.796 103.207C155.488 103.581 155.334 104.104 155.334 104.776V109.255H153.268V104.413C153.268 103.796 153.163 103.344 152.954 103.058C152.756 102.771 152.419 102.628 151.946 102.628C151.406 102.628 150.982 102.821 150.673 103.207C150.365 103.581 150.211 104.104 150.211 104.776V109.255H148.145ZM166.289 109.42C165.452 109.42 164.725 109.249 164.108 108.908C163.491 108.566 163.012 108.082 162.67 107.454C162.329 106.815 162.158 106.065 162.158 105.206C162.158 104.347 162.329 103.603 162.67 102.975C163.012 102.347 163.491 101.862 164.108 101.521C164.725 101.179 165.452 101.009 166.289 101.009C167.126 101.009 167.854 101.179 168.471 101.521C169.088 101.862 169.567 102.347 169.908 102.975C170.25 103.603 170.421 104.347 170.421 105.206C170.421 106.065 170.25 106.815 169.908 107.454C169.567 108.082 169.088 108.566 168.471 108.908C167.854 109.249 167.126 109.42 166.289 109.42ZM166.289 107.85C166.906 107.85 167.402 107.63 167.776 107.189C168.151 106.737 168.338 106.076 168.338 105.206C168.338 104.325 168.151 103.669 167.776 103.24C167.402 102.799 166.906 102.579 166.289 102.579C165.672 102.579 165.176 102.799 164.802 103.24C164.427 103.669 164.24 104.325 164.24 105.206C164.24 106.076 164.427 106.737 164.802 107.189C165.176 107.63 165.672 107.85 166.289 107.85ZM172.126 109.255V101.174H174.142V102.595C174.538 101.637 175.387 101.108 176.687 101.009L177.315 100.959L177.447 102.711L176.257 102.826C174.902 102.959 174.224 103.653 174.224 104.909V109.255H172.126ZM182.153 109.42C181.316 109.42 180.589 109.249 179.972 108.908C179.355 108.566 178.875 108.082 178.534 107.454C178.192 106.815 178.022 106.065 178.022 105.206C178.022 104.347 178.192 103.603 178.534 102.975C178.875 102.347 179.355 101.862 179.972 101.521C180.589 101.179 181.316 101.009 182.153 101.009C182.99 101.009 183.717 101.179 184.334 101.521C184.951 101.862 185.431 102.347 185.772 102.975C186.114 103.603 186.284 104.347 186.284 105.206C186.284 106.065 186.114 106.815 185.772 107.454C185.431 108.082 184.951 108.566 184.334 108.908C183.717 109.249 182.99 109.42 182.153 109.42ZM182.153 107.85C182.77 107.85 183.266 107.63 183.64 107.189C184.015 106.737 184.202 106.076 184.202 105.206C184.202 104.325 184.015 103.669 183.64 103.24C183.266 102.799 182.77 102.579 182.153 102.579C181.536 102.579 181.04 102.799 180.666 103.24C180.291 103.669 180.104 104.325 180.104 105.206C180.104 106.076 180.291 106.737 180.666 107.189C181.04 107.63 181.536 107.85 182.153 107.85Z" fill="#333333"/>
<rect x="317.297" y="80.3198" width="45.9043" height="45.9043" rx="22.9522" fill="#DFE8F7"/>
<path d="M340.667 87.8315C336.671 87.8315 333.404 91.2429 333.404 95.416C333.404 99.5892 336.671 103.001 340.667 103.001C344.663 103.001 347.93 99.5892 347.93 95.416C347.93 91.2429 344.663 87.8315 340.667 87.8315Z" fill="#0E60E2"/>
<path d="M340.667 87.8315C336.671 87.8315 333.404 91.2429 333.404 95.416C333.404 99.5892 336.671 103.001 340.667 103.001C344.663 103.001 347.93 99.5892 347.93 95.416C347.93 91.2429 344.663 87.8315 340.667 87.8315Z" fill="url(#paint5_linear_2225_18982)"/>
<path d="M353.132 109.061C352.941 108.565 352.688 108.101 352.402 107.67C350.943 105.418 348.692 103.928 346.154 103.563C345.837 103.53 345.489 103.597 345.235 103.795C343.903 104.822 342.317 105.352 340.668 105.352C339.019 105.352 337.433 104.822 336.101 103.795C335.847 103.597 335.498 103.497 335.181 103.563C332.644 103.928 330.361 105.418 328.933 107.67C328.648 108.101 328.394 108.598 328.204 109.061C328.109 109.26 328.14 109.492 328.236 109.691C328.489 110.154 328.806 110.618 329.092 111.015C329.536 111.645 330.012 112.208 330.551 112.738C330.995 113.201 331.502 113.632 332.01 114.063C334.515 116.017 337.528 117.043 340.636 117.043C343.744 117.043 346.757 116.017 349.263 114.063C349.77 113.665 350.277 113.201 350.721 112.738C351.229 112.208 351.736 111.645 352.18 111.015C352.497 110.585 352.783 110.154 353.037 109.691C353.195 109.492 353.227 109.26 353.132 109.061Z" fill="#0E60E2"/>
<path d="M353.132 109.061C352.941 108.565 352.688 108.101 352.402 107.67C350.943 105.418 348.692 103.928 346.154 103.563C345.837 103.53 345.489 103.597 345.235 103.795C343.903 104.822 342.317 105.352 340.668 105.352C339.019 105.352 337.433 104.822 336.101 103.795C335.847 103.597 335.498 103.497 335.181 103.563C332.644 103.928 330.361 105.418 328.933 107.67C328.648 108.101 328.394 108.598 328.204 109.061C328.109 109.26 328.14 109.492 328.236 109.691C328.489 110.154 328.806 110.618 329.092 111.015C329.536 111.645 330.012 112.208 330.551 112.738C330.995 113.201 331.502 113.632 332.01 114.063C334.515 116.017 337.528 117.043 340.636 117.043C343.744 117.043 346.757 116.017 349.263 114.063C349.77 113.665 350.277 113.201 350.721 112.738C351.229 112.208 351.736 111.645 352.18 111.015C352.497 110.585 352.783 110.154 353.037 109.691C353.195 109.492 353.227 109.26 353.132 109.061Z" fill="url(#paint6_linear_2225_18982)"/>
<path d="M62.5803 41.0803C62.6782 41.5699 62.8888 41.942 63.212 42.1967C63.5351 42.4513 63.9709 42.5786 64.5193 42.5786C65.2146 42.5786 65.7238 42.3044 66.047 41.756C66.3702 41.2076 66.5318 40.2724 66.5318 38.9503C66.2967 39.2833 65.9638 39.5428 65.5329 39.7288C65.1118 39.9051 64.6515 39.9933 64.1521 39.9933C63.5155 39.9933 62.9378 39.8659 62.4187 39.6113C61.8997 39.3469 61.4884 38.9601 61.1848 38.4509C60.891 37.9318 60.7441 37.3051 60.7441 36.5706C60.7441 35.4934 61.0575 34.6365 61.6843 34C62.3208 33.3537 63.1924 33.0305 64.299 33.0305C65.6308 33.0305 66.5758 33.4761 67.134 34.3672C67.702 35.2486 67.986 36.6049 67.986 38.4362C67.986 39.6995 67.8783 40.7326 67.6628 41.5356C67.4572 42.3387 67.0949 42.9458 66.5758 43.3571C66.0568 43.7684 65.337 43.9741 64.4165 43.9741C63.3686 43.9741 62.5607 43.6999 61.9927 43.1515C61.4248 42.6031 61.1065 41.9127 61.0379 41.0803H62.5803ZM64.4459 38.5831C65.0334 38.5831 65.4937 38.4019 65.8267 38.0396C66.1694 37.6674 66.3408 37.1778 66.3408 36.5706C66.3408 35.8949 66.1596 35.371 65.7973 34.9989C65.4447 34.6169 64.96 34.426 64.343 34.426C63.7261 34.426 63.2364 34.6218 62.8741 35.0136C62.5216 35.3955 62.3453 35.8998 62.3453 36.5266C62.3453 37.1239 62.5167 37.6185 62.8594 38.0102C63.212 38.3921 63.7408 38.5831 64.4459 38.5831ZM70.7148 44.0916C70.4112 44.0916 70.1566 43.9888 69.9509 43.7831C69.7453 43.5775 69.6425 43.3229 69.6425 43.0193C69.6425 42.7157 69.7453 42.4611 69.9509 42.2554C70.1566 42.0498 70.4112 41.9469 70.7148 41.9469C71.0086 41.9469 71.2583 42.0498 71.464 42.2554C71.6696 42.4611 71.7724 42.7157 71.7724 43.0193C71.7724 43.3229 71.6696 43.5775 71.464 43.7831C71.2583 43.9888 71.0086 44.0916 70.7148 44.0916ZM70.7148 37.9221C70.4112 37.9221 70.1566 37.8192 69.9509 37.6136C69.7453 37.4079 69.6425 37.1533 69.6425 36.8497C69.6425 36.5461 69.7453 36.2915 69.9509 36.0859C70.1566 35.8802 70.4112 35.7774 70.7148 35.7774C71.0086 35.7774 71.2583 35.8802 71.464 36.0859C71.6696 36.2915 71.7724 36.5461 71.7724 36.8497C71.7724 37.1533 71.6696 37.4079 71.464 37.6136C71.2583 37.8192 71.0086 37.9221 70.7148 37.9221ZM73.2137 41.756V40.4927L78.1493 33.4124H80.1765V40.3017H81.5426V41.756H80.1765V43.9888H78.5313V41.756H73.2137ZM78.6047 35.1164L75.138 40.3017H78.6047V35.1164ZM82.7098 34.8079V33.2802H85.7652V43.9888H84.0759V34.8079H82.7098Z" fill="black"/>
<path d="M358.091 35.001H342.71C341.451 35.001 340.432 35.9973 340.432 37.2263V43.6833C340.432 44.9123 341.451 45.9086 342.71 45.9086H358.091C359.349 45.9086 360.369 44.9123 360.369 43.6833V37.2263C360.369 35.9973 359.349 35.001 358.091 35.001Z" stroke="black" stroke-width="1.60665" stroke-miterlimit="10" stroke-linecap="square"/>
<path d="M357.494 37.6753H343.307C343.197 37.6753 343.107 37.7625 343.107 37.8701V43.0386C343.107 43.1461 343.197 43.2333 343.307 43.2333H357.494C357.604 43.2333 357.693 43.1461 357.693 43.0386V37.8701C357.693 37.7625 357.604 37.6753 357.494 37.6753Z" fill="black" stroke="black" stroke-width="1.60665" stroke-miterlimit="10" stroke-linecap="square"/>
<path d="M362.762 38.6367V42.2723" stroke="black" stroke-width="1.60665" stroke-miterlimit="10" stroke-linecap="round"/>
<g clip-path="url(#clip2_2225_18982)">
<path d="M316.809 38.2286L318.328 39.7127C322.103 36.0248 328.224 36.0248 331.999 39.7127L333.518 38.2286C328.908 33.7246 321.427 33.7246 316.809 38.2286ZM322.885 44.1648L325.163 46.3908L327.442 44.1648C327.143 43.8719 326.788 43.6396 326.397 43.4811C326.006 43.3226 325.587 43.241 325.163 43.241C324.74 43.241 324.321 43.3226 323.93 43.4811C323.539 43.6396 323.184 43.8719 322.885 44.1648ZM319.847 41.1967L321.366 42.6807C322.373 41.6973 323.739 41.1449 325.163 41.1449C326.588 41.1449 327.954 41.6973 328.961 42.6807L330.48 41.1967C327.548 38.3325 322.786 38.3325 319.847 41.1967Z" fill="black"/>
</g>
<path d="M310.582 34.2212V46.6871" stroke="black" stroke-width="3.2133"/>
<path d="M305.113 36.8926V46.6872" stroke="black" stroke-width="3.2133"/>
<path d="M299.645 39.564V46.6873" stroke="black" stroke-width="3.2133"/>
<path d="M294.176 42.2354V46.6875" stroke="black" stroke-width="3.2133"/>
<g filter="url(#filter2_d_2225_18982)">
<rect x="58.3965" y="295.152" width="307.559" height="77.1193" rx="11.017" fill="white"/>
<rect x="77.6758" y="315.35" width="128.532" height="36.7235" rx="7.34469" fill="#ECFFEE"/>
<path d="M94.5954 338.449V330.789H91.4968V329.711H98.9705V330.789H95.872V338.449H94.5954ZM101.576 338.56C100.964 338.56 100.435 338.432 99.9891 338.176C99.5429 337.92 99.1958 337.56 98.948 337.098C98.7083 336.627 98.5885 336.069 98.5885 335.425C98.5885 334.78 98.7083 334.226 98.948 333.764C99.1958 333.293 99.5429 332.929 99.9891 332.673C100.435 332.417 100.964 332.289 101.576 332.289C102.17 332.289 102.691 332.417 103.137 332.673C103.583 332.929 103.93 333.293 104.178 333.764C104.426 334.226 104.55 334.78 104.55 335.425C104.55 336.069 104.426 336.627 104.178 337.098C103.93 337.56 103.583 337.92 103.137 338.176C102.691 338.432 102.17 338.56 101.576 338.56ZM101.576 337.594C102.088 337.594 102.501 337.408 102.815 337.036C103.129 336.664 103.286 336.127 103.286 335.425C103.286 334.722 103.129 334.189 102.815 333.826C102.501 333.454 102.088 333.268 101.576 333.268C101.055 333.268 100.638 333.454 100.324 333.826C100.01 334.189 99.8527 334.722 99.8527 335.425C99.8527 336.127 100.01 336.664 100.324 337.036C100.638 337.408 101.055 337.594 101.576 337.594ZM105.956 340.68V332.4H107.183V333.429C107.357 333.082 107.621 332.805 107.976 332.599C108.332 332.392 108.741 332.289 109.203 332.289C109.74 332.289 110.207 332.417 110.604 332.673C111.009 332.929 111.319 333.293 111.533 333.764C111.756 334.226 111.868 334.78 111.868 335.425C111.868 336.069 111.756 336.627 111.533 337.098C111.319 337.569 111.009 337.932 110.604 338.188C110.207 338.436 109.74 338.56 109.203 338.56C108.757 338.56 108.356 338.465 108.001 338.275C107.654 338.077 107.39 337.808 107.208 337.47V340.68H105.956ZM108.893 337.594C109.414 337.594 109.827 337.408 110.133 337.036C110.447 336.664 110.604 336.127 110.604 335.425C110.604 334.722 110.447 334.189 110.133 333.826C109.827 333.454 109.414 333.268 108.893 333.268C108.373 333.268 107.956 333.454 107.642 333.826C107.336 334.189 107.183 334.722 107.183 335.425C107.183 336.127 107.336 336.664 107.642 337.036C107.956 337.408 108.373 337.594 108.893 337.594ZM115.435 338.56C113.973 338.56 113.242 337.746 113.242 336.119V332.4H114.493V336.131C114.493 336.619 114.593 336.978 114.791 337.209C114.989 337.441 115.303 337.556 115.733 337.556C116.204 337.556 116.584 337.399 116.873 337.085C117.17 336.771 117.319 336.35 117.319 335.821V332.4H118.571V338.449H117.356V337.482C117.158 337.837 116.894 338.106 116.563 338.288C116.233 338.469 115.857 338.56 115.435 338.56ZM120.335 340.68V332.4H121.562V333.429C121.736 333.082 122 332.805 122.355 332.599C122.711 332.392 123.12 332.289 123.582 332.289C124.12 332.289 124.586 332.417 124.983 332.673C125.388 332.929 125.698 333.293 125.913 333.764C126.136 334.226 126.247 334.78 126.247 335.425C126.247 336.069 126.136 336.627 125.913 337.098C125.698 337.569 125.388 337.932 124.983 338.188C124.586 338.436 124.12 338.56 123.582 338.56C123.136 338.56 122.736 338.465 122.38 338.275C122.033 338.077 121.769 337.808 121.587 337.47V340.68H120.335ZM123.273 337.594C123.793 337.594 124.206 337.408 124.512 337.036C124.826 336.664 124.983 336.127 124.983 335.425C124.983 334.722 124.826 334.189 124.512 333.826C124.206 333.454 123.793 333.268 123.273 333.268C122.752 333.268 122.335 333.454 122.021 333.826C121.715 334.189 121.562 334.722 121.562 335.425C121.562 336.127 121.715 336.664 122.021 337.036C122.335 337.408 122.752 337.594 123.273 337.594ZM133.43 338.449L130.368 329.711H131.682L134.025 336.59L136.429 329.711H137.408L139.788 336.664L142.18 329.711H143.432L140.346 338.449H139.267L136.9 331.657L134.508 338.449H133.43ZM145.847 338.56C145.425 338.56 145.049 338.478 144.719 338.312C144.388 338.147 144.124 337.924 143.926 337.643C143.736 337.362 143.64 337.044 143.64 336.689C143.64 336.243 143.752 335.891 143.975 335.635C144.206 335.379 144.582 335.193 145.103 335.078C145.632 334.962 146.342 334.904 147.235 334.904H147.656V334.582C147.656 334.111 147.557 333.772 147.359 333.565C147.16 333.359 146.834 333.256 146.38 333.256C146.033 333.256 145.686 333.309 145.338 333.417C144.991 333.516 144.636 333.677 144.273 333.9L143.888 333.02C144.202 332.797 144.595 332.619 145.066 332.487C145.537 332.355 145.987 332.289 146.417 332.289C147.243 332.289 147.854 332.487 148.251 332.884C148.648 333.272 148.846 333.884 148.846 334.718V338.449H147.669V337.445C147.52 337.792 147.288 338.065 146.975 338.263C146.661 338.461 146.285 338.56 145.847 338.56ZM146.095 337.668C146.541 337.668 146.913 337.511 147.21 337.197C147.507 336.883 147.656 336.486 147.656 336.007V335.672H147.247C146.644 335.672 146.169 335.701 145.822 335.759C145.483 335.817 145.239 335.916 145.091 336.057C144.95 336.189 144.88 336.375 144.88 336.614C144.88 336.928 144.987 337.185 145.202 337.383C145.417 337.573 145.714 337.668 146.095 337.668ZM152.541 338.56C151.88 338.56 151.384 338.374 151.054 338.003C150.731 337.631 150.57 337.085 150.57 336.367V329.711H151.822V336.292C151.822 337.11 152.157 337.519 152.826 337.519C152.925 337.519 153.016 337.515 153.099 337.507C153.189 337.499 153.28 337.482 153.371 337.457L153.346 338.461C153.066 338.527 152.797 338.56 152.541 338.56ZM156.329 338.56C155.668 338.56 155.173 338.374 154.842 338.003C154.52 337.631 154.359 337.085 154.359 336.367V329.711H155.61V336.292C155.61 337.11 155.945 337.519 156.614 337.519C156.714 337.519 156.804 337.515 156.887 337.507C156.978 337.499 157.069 337.482 157.16 337.457L157.135 338.461C156.854 338.527 156.585 338.56 156.329 338.56ZM160.925 338.56C159.933 338.56 159.152 338.283 158.582 337.73C158.012 337.168 157.727 336.404 157.727 335.437C157.727 334.817 157.851 334.272 158.099 333.801C158.355 333.322 158.706 332.95 159.152 332.685C159.599 332.421 160.111 332.289 160.689 332.289C161.524 332.289 162.181 332.557 162.66 333.094C163.139 333.623 163.379 334.355 163.379 335.288V335.71H158.942C159.033 336.966 159.698 337.594 160.937 337.594C161.284 337.594 161.623 337.54 161.954 337.432C162.292 337.325 162.61 337.147 162.908 336.899L163.28 337.767C163.007 338.015 162.656 338.209 162.226 338.35C161.797 338.49 161.363 338.56 160.925 338.56ZM160.739 333.169C160.218 333.169 159.805 333.33 159.5 333.652C159.194 333.974 159.008 334.404 158.942 334.941H162.325C162.301 334.379 162.152 333.946 161.879 333.64C161.607 333.326 161.226 333.169 160.739 333.169ZM167.309 338.56C166.549 338.56 165.983 338.366 165.611 337.978C165.24 337.589 165.054 337.028 165.054 336.292V333.367H163.876V332.4H165.054V330.578H166.306V332.4H168.177V333.367H166.306V336.193C166.306 336.631 166.396 336.961 166.578 337.185C166.768 337.408 167.074 337.519 167.495 337.519C167.628 337.519 167.756 337.507 167.88 337.482C168.004 337.449 168.127 337.412 168.251 337.37L168.45 338.312C168.326 338.387 168.152 338.445 167.929 338.486C167.714 338.535 167.508 338.56 167.309 338.56Z" fill="#333333"/>
<g clip-path="url(#clip3_2225_18982)">
<path d="M191.453 332.728H188.109C188 332.728 187.912 332.64 187.912 332.531V329.187C187.912 328.644 187.472 328.203 186.928 328.203C186.385 328.203 185.945 328.644 185.945 329.187V332.531C185.945 332.64 185.857 332.728 185.748 332.728H182.404C181.86 332.728 181.42 333.168 181.42 333.712C181.42 334.255 181.86 334.695 182.404 334.695H185.748C185.857 334.695 185.945 334.783 185.945 334.892V338.237C185.945 338.78 186.385 339.22 186.928 339.22C187.472 339.22 187.912 338.78 187.912 338.237V334.892C187.912 334.783 188 334.695 188.109 334.695H191.453C191.997 334.695 192.437 334.255 192.437 333.712C192.437 333.168 191.997 332.728 191.453 332.728Z" fill="#039711"/>
</g>
<rect x="219.062" y="315.35" width="129.267" height="36.7235" rx="7.34469" fill="#FFF6E1"/>
<path d="M230.141 337.449V329.034H233.626C234.533 329.034 235.233 329.261 235.726 329.715C236.22 330.16 236.466 330.789 236.466 331.601C236.466 332.42 236.22 333.057 235.726 333.51C235.233 333.956 234.533 334.179 233.626 334.179H231.382V337.449H230.141ZM231.382 333.188H233.447C234.656 333.188 235.261 332.659 235.261 331.601C235.261 330.55 234.656 330.025 233.447 330.025H231.382V333.188ZM239.238 337.556C238.832 337.556 238.47 337.477 238.151 337.317C237.833 337.158 237.579 336.943 237.388 336.673C237.205 336.402 237.113 336.096 237.113 335.754C237.113 335.324 237.221 334.986 237.435 334.739C237.658 334.493 238.02 334.314 238.521 334.202C239.031 334.091 239.715 334.035 240.574 334.035H240.98V333.725C240.98 333.271 240.885 332.945 240.694 332.746C240.503 332.547 240.188 332.448 239.751 332.448C239.417 332.448 239.082 332.5 238.748 332.603C238.414 332.699 238.072 332.854 237.722 333.069L237.352 332.221C237.654 332.006 238.032 331.835 238.486 331.708C238.939 331.581 239.373 331.517 239.787 331.517C240.582 331.517 241.171 331.708 241.553 332.09C241.935 332.464 242.126 333.053 242.126 333.856V337.449H240.992V336.482C240.849 336.816 240.626 337.079 240.324 337.27C240.021 337.461 239.659 337.556 239.238 337.556ZM239.476 336.697C239.906 336.697 240.264 336.546 240.55 336.243C240.837 335.941 240.98 335.559 240.98 335.098V334.775H240.586C240.005 334.775 239.548 334.803 239.214 334.859C238.887 334.915 238.653 335.01 238.51 335.145C238.374 335.273 238.307 335.452 238.307 335.682C238.307 335.985 238.41 336.231 238.617 336.422C238.824 336.605 239.11 336.697 239.476 336.697ZM244.325 339.597L245.363 337.294L242.928 331.624H244.217L246.008 336.052L247.822 331.624H249.063L245.59 339.597H244.325ZM255.487 337.449L252.539 329.034H253.804L256.06 335.658L258.375 329.034H259.318L261.609 335.73L263.913 329.034H265.118L262.147 337.449H261.108L258.829 330.908L256.525 337.449H255.487ZM266.174 330.276V329.023H267.582V330.276H266.174ZM266.281 337.449V331.624H267.487V337.449H266.281ZM271.666 337.556C270.934 337.556 270.389 337.369 270.031 336.995C269.673 336.621 269.494 336.08 269.494 335.372V332.555H268.36V331.624H269.494V329.87H270.699V331.624H272.501V332.555H270.699V335.277C270.699 335.698 270.787 336.017 270.962 336.231C271.145 336.446 271.439 336.554 271.845 336.554C271.972 336.554 272.095 336.542 272.215 336.518C272.334 336.486 272.454 336.45 272.573 336.41L272.764 337.317C272.644 337.389 272.477 337.445 272.263 337.485C272.056 337.532 271.857 337.556 271.666 337.556ZM273.542 337.449V329.034H274.748V332.531C274.947 332.197 275.213 331.947 275.548 331.78C275.89 331.604 276.272 331.517 276.693 331.517C278.07 331.517 278.758 332.297 278.758 333.856V337.449H277.553V333.928C277.553 333.427 277.453 333.061 277.254 332.83C277.063 332.599 276.761 332.484 276.347 332.484C275.862 332.484 275.472 332.639 275.178 332.949C274.891 333.252 274.748 333.653 274.748 334.155V337.449H273.542ZM283.686 337.449V329.034H287.171C288.078 329.034 288.778 329.261 289.271 329.715C289.765 330.16 290.011 330.789 290.011 331.601C290.011 332.42 289.765 333.057 289.271 333.51C288.778 333.956 288.078 334.179 287.171 334.179H284.927V337.449H283.686ZM284.927 333.188H286.992C288.201 333.188 288.806 332.659 288.806 331.601C288.806 330.55 288.201 330.025 286.992 330.025H284.927V333.188ZM291.212 337.449V329.034H292.417V332.531C292.616 332.197 292.883 331.947 293.217 331.78C293.559 331.604 293.941 331.517 294.363 331.517C295.739 331.517 296.428 332.297 296.428 333.856V337.449H295.222V333.928C295.222 333.427 295.123 333.061 294.924 332.83C294.733 332.599 294.431 332.484 294.017 332.484C293.531 332.484 293.142 332.639 292.847 332.949C292.561 333.252 292.417 333.653 292.417 334.155V337.449H291.212ZM300.619 337.556C300.03 337.556 299.521 337.433 299.091 337.186C298.662 336.939 298.327 336.593 298.089 336.148C297.858 335.694 297.743 335.157 297.743 334.537C297.743 333.916 297.858 333.383 298.089 332.937C298.327 332.484 298.662 332.134 299.091 331.887C299.521 331.64 300.03 331.517 300.619 331.517C301.192 331.517 301.693 331.64 302.123 331.887C302.552 332.134 302.887 332.484 303.125 332.937C303.364 333.383 303.483 333.916 303.483 334.537C303.483 335.157 303.364 335.694 303.125 336.148C302.887 336.593 302.552 336.939 302.123 337.186C301.693 337.433 301.192 337.556 300.619 337.556ZM300.619 336.625C301.112 336.625 301.51 336.446 301.812 336.088C302.115 335.73 302.266 335.213 302.266 334.537C302.266 333.86 302.115 333.347 301.812 332.997C301.51 332.639 301.112 332.46 300.619 332.46C300.118 332.46 299.716 332.639 299.413 332.997C299.111 333.347 298.96 333.86 298.96 334.537C298.96 335.213 299.111 335.73 299.413 336.088C299.716 336.446 300.118 336.625 300.619 336.625ZM304.837 337.449V331.624H306.007V332.591C306.206 332.241 306.476 331.974 306.818 331.791C307.168 331.608 307.558 331.517 307.988 331.517C309.365 331.517 310.053 332.297 310.053 333.856V337.449H308.847V333.928C308.847 333.427 308.748 333.061 308.549 332.83C308.358 332.599 308.056 332.484 307.642 332.484C307.157 332.484 306.767 332.639 306.472 332.949C306.186 333.252 306.043 333.653 306.043 334.155V337.449H304.837ZM314.447 337.556C313.492 337.556 312.74 337.29 312.191 336.756C311.642 336.215 311.368 335.479 311.368 334.548C311.368 333.952 311.487 333.427 311.726 332.973C311.972 332.512 312.311 332.154 312.74 331.899C313.17 331.644 313.663 331.517 314.22 331.517C315.024 331.517 315.656 331.776 316.118 332.293C316.579 332.802 316.81 333.506 316.81 334.405V334.811H312.537C312.625 336.02 313.265 336.625 314.459 336.625C314.793 336.625 315.119 336.573 315.438 336.47C315.764 336.367 316.07 336.196 316.357 335.957L316.715 336.792C316.452 337.031 316.114 337.218 315.7 337.353C315.286 337.489 314.869 337.556 314.447 337.556ZM314.268 332.364C313.767 332.364 313.369 332.52 313.074 332.83C312.78 333.14 312.601 333.554 312.537 334.071H315.796C315.772 333.53 315.629 333.112 315.366 332.818C315.103 332.516 314.737 332.364 314.268 332.364Z" fill="#333333"/>
<path d="M326.968 331.187V328.662H329.661C329.985 328.662 329.985 328.203 329.661 328.203H326.723C326.588 328.203 326.479 328.306 326.479 328.433V331.187C326.479 331.491 326.968 331.49 326.968 331.187Z" fill="#E69216"/>
<path d="M329.661 338.762H326.968V336.237C326.968 335.933 326.479 335.934 326.479 336.237V338.991C326.479 339.118 326.588 339.221 326.723 339.221H329.661C329.985 339.221 329.985 338.762 329.661 338.762Z" fill="#E69216"/>
<path d="M338.23 328.433C338.23 328.306 338.121 328.203 337.985 328.203H335.048C334.723 328.203 334.724 328.662 335.048 328.662H337.741V331.187C337.741 331.491 338.23 331.49 338.23 331.187V328.433Z" fill="#E69216"/>
<path d="M337.741 336.237V338.762H335.048C334.723 338.762 334.724 339.221 335.048 339.221H337.985C338.121 339.221 338.23 339.118 338.23 338.991V336.237C338.23 335.933 337.741 335.934 337.741 336.237Z" fill="#E69216"/>
<path d="M328.926 331.187C328.926 331.313 329.035 331.416 329.171 331.416H329.66C329.795 331.416 329.905 331.313 329.905 331.187V330.728C329.905 330.601 329.795 330.498 329.66 330.498H329.171C329.035 330.498 328.926 330.601 328.926 330.728V331.187Z" fill="#E69216"/>
<path d="M328.192 329.58C328.057 329.58 327.947 329.683 327.947 329.81V332.105C327.947 332.231 328.057 332.334 328.192 332.334H330.64C330.775 332.334 330.885 332.231 330.885 332.105V329.81C330.885 329.683 330.775 329.58 330.64 329.58H328.192ZM328.437 330.039H330.395V331.875H328.437V330.039Z" fill="#E69216"/>
<path d="M329.905 336.236C329.905 336.109 329.795 336.006 329.66 336.006H329.171C329.035 336.006 328.926 336.109 328.926 336.236V336.695C328.926 336.822 329.035 336.924 329.171 336.924H329.66C329.795 336.924 329.905 336.822 329.905 336.695V336.236Z" fill="#E69216"/>
<path d="M330.885 335.318C330.885 335.192 330.775 335.089 330.64 335.089H328.192C328.057 335.089 327.947 335.192 327.947 335.318V337.613C327.947 337.74 328.057 337.843 328.192 337.843H330.64C330.775 337.843 330.885 337.74 330.885 337.613V335.318ZM330.395 337.384H328.437V335.548H330.395V337.384Z" fill="#E69216"/>
<path d="M334.803 331.187C334.803 331.313 334.912 331.416 335.048 331.416H335.537C335.672 331.416 335.782 331.313 335.782 331.187V330.728C335.782 330.601 335.672 330.498 335.537 330.498H335.048C334.912 330.498 334.803 330.601 334.803 330.728V331.187Z" fill="#E69216"/>
<path d="M333.822 332.105C333.822 332.231 333.932 332.334 334.067 332.334H336.515C336.65 332.334 336.76 332.231 336.76 332.105V329.81C336.76 329.683 336.65 329.58 336.515 329.58H334.067C333.932 329.58 333.822 329.683 333.822 329.81V332.105ZM334.312 330.039H336.27V331.875H334.312V330.039Z" fill="#E69216"/>
<path d="M329.661 334.63C329.714 334.63 331.692 334.63 331.619 334.63C331.944 334.63 331.943 334.171 331.619 334.171H330.885V333.482C330.885 333.178 330.395 333.179 330.395 333.482V334.171H329.661C329.337 334.171 329.337 334.63 329.661 334.63Z" fill="#E69216"/>
<path d="M331.865 330.269V329.81C331.865 329.506 331.375 329.506 331.375 329.81V330.269C331.375 330.573 331.865 330.572 331.865 330.269Z" fill="#E69216"/>
<path d="M331.62 331.417H332.599C332.734 331.417 332.844 331.314 332.844 331.187V330.499H333.089C333.413 330.499 333.412 330.04 333.089 330.04H332.599C332.464 330.04 332.354 330.142 332.354 330.269V330.958H331.62C331.296 330.958 331.296 331.417 331.62 331.417Z" fill="#E69216"/>
<path d="M331.62 333.712H332.599C332.923 333.712 332.923 333.253 332.599 333.253H332.354V332.334H333.089C333.413 332.334 333.412 331.875 333.089 331.875H332.11C331.974 331.875 331.865 331.978 331.865 332.105V333.253H331.62C331.296 333.253 331.296 333.712 331.62 333.712Z" fill="#E69216"/>
<path d="M333.334 333.482C333.334 333.786 333.824 333.785 333.824 333.482V333.023C333.824 332.719 333.334 332.719 333.334 333.023V333.482Z" fill="#E69216"/>
<path d="M331.865 336.007H332.354V336.236C332.354 336.54 332.844 336.539 332.844 336.236V334.859C332.844 334.555 332.354 334.556 332.354 334.859V335.548H331.62C331.485 335.548 331.375 335.65 331.375 335.777V336.236C331.375 336.54 331.865 336.539 331.865 336.236V336.007Z" fill="#E69216"/>
<path d="M333.824 336.236V336.466H333.579C333.444 336.466 333.334 336.568 333.334 336.695V337.384H332.11C331.786 337.384 331.786 337.843 332.11 337.843H333.579C333.714 337.843 333.824 337.74 333.824 337.613V336.925H334.069C334.204 336.925 334.314 336.822 334.314 336.695V336.236C334.314 335.932 333.824 335.933 333.824 336.236Z" fill="#E69216"/>
<path d="M335.292 336.695V337.384H335.048C334.723 337.384 334.724 337.843 335.048 337.843H336.517C336.841 337.843 336.84 337.384 336.517 337.384H335.782V336.695C335.782 336.391 335.292 336.392 335.292 336.695Z" fill="#E69216"/>
<path d="M336.761 335.318C336.761 335.192 336.652 335.089 336.517 335.089H335.048C334.723 335.089 334.724 335.548 335.048 335.548H336.272V336.237C336.272 336.541 336.761 336.541 336.761 336.237V335.318Z" fill="#E69216"/>
<path d="M336.761 333.482C336.761 333.178 336.271 333.179 336.271 333.482V334.171H336.026C335.702 334.171 335.702 334.63 336.026 334.63H336.516C336.651 334.63 336.761 334.527 336.761 334.4V333.482Z" fill="#E69216"/>
<path d="M335.293 334.4V333.252H335.537C335.862 333.252 335.861 332.793 335.537 332.793H335.048C334.913 332.793 334.803 332.896 334.803 333.023V334.17H334.069C333.933 334.17 333.824 334.273 333.824 334.4V335.088H333.579C333.255 335.088 333.255 335.547 333.579 335.547H334.069C334.204 335.547 334.313 335.445 334.313 335.318V334.629H335.048C335.183 334.629 335.293 334.527 335.293 334.4Z" fill="#E69216"/>
<path d="M327.947 333.023C327.947 333.091 327.947 334.466 327.947 334.4C327.947 334.704 328.437 334.703 328.437 334.4V333.711H329.171C329.496 333.711 329.495 333.252 329.171 333.252H328.437V333.023C328.437 332.719 327.947 332.719 327.947 333.023Z" fill="#E69216"/>
<rect x="58.8555" y="295.611" width="306.641" height="76.2012" rx="10.558" stroke="#F5F3F3" stroke-width="0.918087"/>
</g>
<g filter="url(#filter3_d_2225_18982)">
<rect x="58.3965" y="399.814" width="307.559" height="302.969" rx="11.017" fill="white"/>
<rect x="58.8555" y="400.273" width="306.641" height="302.051" rx="10.558" stroke="#F6F5F5" stroke-width="0.918087"/>
</g>
<g clip-path="url(#clip4_2225_18982)">
<rect x="58.3965" y="142.75" width="309.395" height="134.041" rx="11.017" fill="#0E60E2"/>
<path d="M84.9596 178.112L80.8778 166.461H82.6295L85.7529 175.633L88.9588 166.461H90.2644L93.4373 175.732L96.6267 166.461H98.2958L94.1809 178.112H92.7432L89.5868 169.056L86.3974 178.112H84.9596ZM101.515 178.261C100.954 178.261 100.452 178.15 100.012 177.93C99.5709 177.71 99.2184 177.412 98.954 177.038C98.7006 176.663 98.5739 176.239 98.5739 175.765C98.5739 175.17 98.7226 174.702 99.0201 174.361C99.3285 174.019 99.8298 173.771 100.524 173.617C101.229 173.463 102.176 173.386 103.366 173.386H103.928V172.956C103.928 172.328 103.796 171.876 103.532 171.601C103.267 171.325 102.832 171.188 102.226 171.188C101.763 171.188 101.301 171.259 100.838 171.402C100.375 171.535 99.9014 171.749 99.4167 172.047L98.9044 170.874C99.323 170.576 99.8463 170.339 100.474 170.163C101.102 169.987 101.703 169.899 102.276 169.899C103.377 169.899 104.193 170.163 104.721 170.692C105.25 171.21 105.515 172.025 105.515 173.138V178.112H103.945V176.773C103.746 177.236 103.438 177.6 103.019 177.864C102.601 178.128 102.099 178.261 101.515 178.261ZM101.846 177.071C102.441 177.071 102.937 176.861 103.333 176.443C103.73 176.024 103.928 175.495 103.928 174.856V174.41H103.383C102.579 174.41 101.945 174.449 101.482 174.526C101.031 174.603 100.706 174.735 100.507 174.922C100.32 175.099 100.226 175.347 100.226 175.666C100.226 176.085 100.37 176.426 100.656 176.691C100.943 176.944 101.339 177.071 101.846 177.071ZM110.441 178.261C109.56 178.261 108.899 178.013 108.458 177.517C108.028 177.021 107.813 176.294 107.813 175.336V166.461H109.483V175.236C109.483 176.327 109.929 176.872 110.821 176.872C110.953 176.872 111.075 176.867 111.185 176.856C111.306 176.845 111.427 176.823 111.548 176.79L111.515 178.128C111.141 178.216 110.783 178.261 110.441 178.261ZM115.492 178.261C114.611 178.261 113.95 178.013 113.509 177.517C113.08 177.021 112.865 176.294 112.865 175.336V166.461H114.534V175.236C114.534 176.327 114.98 176.872 115.872 176.872C116.005 176.872 116.126 176.867 116.236 176.856C116.357 176.845 116.478 176.823 116.6 176.79L116.566 178.128C116.192 178.216 115.834 178.261 115.492 178.261ZM121.62 178.261C120.298 178.261 119.257 177.891 118.496 177.153C117.736 176.404 117.356 175.385 117.356 174.096C117.356 173.27 117.521 172.543 117.852 171.915C118.193 171.276 118.662 170.78 119.257 170.427C119.851 170.075 120.534 169.899 121.306 169.899C122.418 169.899 123.294 170.257 123.933 170.973C124.572 171.678 124.892 172.653 124.892 173.898V174.46H118.976C119.097 176.134 119.984 176.972 121.636 176.972C122.099 176.972 122.551 176.9 122.991 176.757C123.443 176.613 123.867 176.377 124.264 176.046L124.76 177.203C124.396 177.533 123.928 177.792 123.355 177.98C122.782 178.167 122.204 178.261 121.62 178.261ZM121.372 171.072C120.678 171.072 120.127 171.287 119.719 171.716C119.312 172.146 119.064 172.719 118.976 173.435H123.487C123.454 172.686 123.256 172.108 122.892 171.7C122.529 171.281 122.022 171.072 121.372 171.072ZM130.133 178.261C129.119 178.261 128.364 178.002 127.869 177.484C127.373 176.966 127.125 176.217 127.125 175.236V171.336H125.555V170.047H127.125V167.618H128.794V170.047H131.289V171.336H128.794V175.104C128.794 175.688 128.915 176.129 129.158 176.426C129.411 176.724 129.819 176.872 130.38 176.872C130.557 176.872 130.727 176.856 130.893 176.823C131.058 176.779 131.223 176.729 131.388 176.674L131.653 177.93C131.488 178.029 131.256 178.106 130.959 178.161C130.672 178.227 130.397 178.261 130.133 178.261ZM137.254 178.112V166.461H142.112C143.324 166.461 144.261 166.731 144.922 167.271C145.594 167.8 145.93 168.544 145.93 169.502C145.93 170.13 145.765 170.67 145.434 171.122C145.104 171.573 144.652 171.904 144.079 172.113C144.751 172.289 145.274 172.614 145.649 173.088C146.023 173.562 146.211 174.162 146.211 174.889C146.211 175.925 145.864 176.724 145.17 177.286C144.487 177.836 143.534 178.112 142.311 178.112H137.254ZM138.906 171.551H141.848C143.456 171.551 144.261 170.923 144.261 169.667C144.261 168.411 143.456 167.783 141.848 167.783H138.906V171.551ZM138.906 176.79H142.112C143.732 176.79 144.542 176.134 144.542 174.823C144.542 173.523 143.732 172.873 142.112 172.873H138.906V176.79ZM150.915 178.261C150.353 178.261 149.851 178.15 149.411 177.93C148.97 177.71 148.618 177.412 148.353 177.038C148.1 176.663 147.973 176.239 147.973 175.765C147.973 175.17 148.122 174.702 148.419 174.361C148.728 174.019 149.229 173.771 149.923 173.617C150.628 173.463 151.576 173.386 152.765 173.386H153.327V172.956C153.327 172.328 153.195 171.876 152.931 171.601C152.666 171.325 152.231 171.188 151.625 171.188C151.162 171.188 150.7 171.259 150.237 171.402C149.774 171.535 149.301 171.749 148.816 172.047L148.304 170.874C148.722 170.576 149.246 170.339 149.873 170.163C150.501 169.987 151.102 169.899 151.675 169.899C152.776 169.899 153.592 170.163 154.121 170.692C154.649 171.21 154.914 172.025 154.914 173.138V178.112H153.344V176.773C153.146 177.236 152.837 177.6 152.418 177.864C152 178.128 151.498 178.261 150.915 178.261ZM151.245 177.071C151.84 177.071 152.336 176.861 152.732 176.443C153.129 176.024 153.327 175.495 153.327 174.856V174.41H152.782C151.978 174.41 151.344 174.449 150.882 174.526C150.43 174.603 150.105 174.735 149.907 174.922C149.719 175.099 149.626 175.347 149.626 175.666C149.626 176.085 149.769 176.426 150.055 176.691C150.342 176.944 150.738 177.071 151.245 177.071ZM159.84 178.261C158.959 178.261 158.298 178.013 157.857 177.517C157.427 177.021 157.213 176.294 157.213 175.336V166.461H158.882V175.236C158.882 176.327 159.328 176.872 160.22 176.872C160.352 176.872 160.474 176.867 160.584 176.856C160.705 176.845 160.826 176.823 160.947 176.79L160.914 178.128C160.54 178.216 160.182 178.261 159.84 178.261ZM164.842 178.261C164.28 178.261 163.779 178.15 163.338 177.93C162.897 177.71 162.545 177.412 162.28 177.038C162.027 176.663 161.9 176.239 161.9 175.765C161.9 175.17 162.049 174.702 162.347 174.361C162.655 174.019 163.156 173.771 163.85 173.617C164.555 173.463 165.503 173.386 166.693 173.386H167.255V172.956C167.255 172.328 167.122 171.876 166.858 171.601C166.594 171.325 166.158 171.188 165.552 171.188C165.09 171.188 164.627 171.259 164.164 171.402C163.702 171.535 163.228 171.749 162.743 172.047L162.231 170.874C162.649 170.576 163.173 170.339 163.801 170.163C164.429 169.987 165.029 169.899 165.602 169.899C166.704 169.899 167.519 170.163 168.048 170.692C168.577 171.21 168.841 172.025 168.841 173.138V178.112H167.271V176.773C167.073 177.236 166.764 177.6 166.346 177.864C165.927 178.128 165.426 178.261 164.842 178.261ZM165.172 177.071C165.767 177.071 166.263 176.861 166.66 176.443C167.056 176.024 167.255 175.495 167.255 174.856V174.41H166.709C165.905 174.41 165.272 174.449 164.809 174.526C164.357 174.603 164.032 174.735 163.834 174.922C163.647 175.099 163.553 175.347 163.553 175.666C163.553 176.085 163.696 176.426 163.983 176.691C164.269 176.944 164.666 177.071 165.172 177.071ZM171.14 178.112V170.047H172.759V171.386C173.035 170.901 173.409 170.532 173.883 170.279C174.368 170.025 174.908 169.899 175.503 169.899C177.409 169.899 178.362 170.978 178.362 173.138V178.112H176.693V173.237C176.693 172.543 176.555 172.036 176.279 171.716C176.015 171.397 175.596 171.237 175.023 171.237C174.351 171.237 173.812 171.452 173.404 171.882C173.007 172.3 172.809 172.857 172.809 173.551V178.112H171.14ZM184.215 178.261C183.388 178.261 182.672 178.09 182.066 177.748C181.471 177.396 181.009 176.905 180.678 176.277C180.348 175.638 180.182 174.889 180.182 174.03C180.182 172.752 180.546 171.744 181.273 171.006C182 170.268 182.981 169.899 184.215 169.899C184.721 169.899 185.223 169.987 185.718 170.163C186.214 170.339 186.622 170.582 186.941 170.89L186.412 172.063C186.104 171.777 185.762 171.568 185.388 171.435C185.024 171.292 184.677 171.221 184.347 171.221C183.564 171.221 182.959 171.469 182.529 171.964C182.11 172.449 181.901 173.143 181.901 174.047C181.901 174.95 182.11 175.661 182.529 176.178C182.959 176.685 183.564 176.939 184.347 176.939C184.677 176.939 185.024 176.872 185.388 176.74C185.762 176.597 186.104 176.382 186.412 176.096L186.941 177.286C186.622 177.583 186.209 177.82 185.702 177.996C185.206 178.172 184.71 178.261 184.215 178.261ZM191.999 178.261C190.677 178.261 189.635 177.891 188.875 177.153C188.115 176.404 187.735 175.385 187.735 174.096C187.735 173.27 187.9 172.543 188.231 171.915C188.572 171.276 189.04 170.78 189.635 170.427C190.23 170.075 190.913 169.899 191.685 169.899C192.797 169.899 193.673 170.257 194.312 170.973C194.951 171.678 195.271 172.653 195.271 173.898V174.46H189.354C189.476 176.134 190.363 176.972 192.015 176.972C192.478 176.972 192.929 176.9 193.37 176.757C193.822 176.613 194.246 176.377 194.643 176.046L195.138 177.203C194.775 177.533 194.307 177.792 193.734 177.98C193.161 178.167 192.582 178.261 191.999 178.261ZM191.751 171.072C191.057 171.072 190.506 171.287 190.098 171.716C189.69 172.146 189.443 172.719 189.354 173.435H193.866C193.833 172.686 193.635 172.108 193.271 171.7C192.907 171.281 192.401 171.072 191.751 171.072Z" fill="white"/>
<path d="M107.055 221.609C105.525 221.609 104.356 221.034 103.548 219.883C102.74 218.72 102.336 217.067 102.336 214.925C102.336 212.759 102.74 211.112 103.548 209.986C104.356 208.86 105.525 208.297 107.055 208.297C108.598 208.297 109.767 208.86 110.562 209.986C111.37 211.112 111.774 212.752 111.774 214.907C111.774 217.061 111.37 218.72 110.562 219.883C109.755 221.034 108.586 221.609 107.055 221.609ZM107.055 219.681C107.888 219.681 108.5 219.301 108.892 218.543C109.296 217.771 109.498 216.559 109.498 214.907C109.498 213.267 109.296 212.079 108.892 211.345C108.5 210.598 107.888 210.225 107.055 210.225C106.235 210.225 105.623 210.598 105.219 211.345C104.815 212.079 104.613 213.267 104.613 214.907C104.613 216.559 104.815 217.771 105.219 218.543C105.623 219.301 106.235 219.681 107.055 219.681ZM113.548 221.425V218.873H116.119V221.425H113.548ZM122.62 221.609C121.09 221.609 119.921 221.034 119.113 219.883C118.305 218.72 117.901 217.067 117.901 214.925C117.901 212.759 118.305 211.112 119.113 209.986C119.921 208.86 121.09 208.297 122.62 208.297C124.162 208.297 125.331 208.86 126.127 209.986C126.935 211.112 127.339 212.752 127.339 214.907C127.339 217.061 126.935 218.72 126.127 219.883C125.319 221.034 124.15 221.609 122.62 221.609ZM122.62 219.681C123.452 219.681 124.064 219.301 124.456 218.543C124.86 217.771 125.062 216.559 125.062 214.907C125.062 213.267 124.86 212.079 124.456 211.345C124.064 210.598 123.452 210.225 122.62 210.225C121.8 210.225 121.188 210.598 120.784 211.345C120.38 212.079 120.178 213.267 120.178 214.907C120.178 216.559 120.38 217.771 120.784 218.543C121.188 219.301 121.8 219.681 122.62 219.681ZM133.63 221.609C132.1 221.609 130.931 221.034 130.123 219.883C129.315 218.72 128.911 217.067 128.911 214.925C128.911 212.759 129.315 211.112 130.123 209.986C130.931 208.86 132.1 208.297 133.63 208.297C135.172 208.297 136.341 208.86 137.137 209.986C137.945 211.112 138.349 212.752 138.349 214.907C138.349 217.061 137.945 218.72 137.137 219.883C136.329 221.034 135.16 221.609 133.63 221.609ZM133.63 219.681C134.462 219.681 135.074 219.301 135.466 218.543C135.87 217.771 136.072 216.559 136.072 214.907C136.072 213.267 135.87 212.079 135.466 211.345C135.074 210.598 134.462 210.225 133.63 210.225C132.81 210.225 132.197 210.598 131.794 211.345C131.39 212.079 131.188 213.267 131.188 214.907C131.188 216.559 131.39 217.771 131.794 218.543C132.197 219.301 132.81 219.681 133.63 219.681Z" fill="white"/>
<g clip-path="url(#clip5_2225_18982)">
<path d="M98.1794 215.231H95.9236V213.063H98.1794C98.5184 213.063 98.7931 212.789 98.7931 212.45C98.7931 212.111 98.5184 211.836 98.1794 211.836H95.9236V208.828C95.9236 208.389 95.8368 208.066 95.6657 207.87C95.5032 207.683 95.2894 207.596 94.9934 207.596C94.711 207.596 94.5053 207.683 94.3458 207.868C94.1768 208.065 94.0909 208.388 94.0909 208.828V211.836H89.8476L88.0433 209.106C87.8889 208.862 87.7437 208.634 87.6027 208.415C87.4758 208.218 87.352 208.057 87.2351 207.937C87.1315 207.831 87.0135 207.749 86.8755 207.686C86.7453 207.626 86.5798 207.596 86.384 207.596C86.1342 207.596 85.9074 207.665 85.6903 207.805C85.4755 207.944 85.327 208.116 85.2362 208.331C85.1566 208.535 85.1145 208.848 85.1145 209.251V211.836H82.8811C82.5422 211.836 82.2676 212.111 82.2676 212.45C82.2676 212.789 82.5422 213.063 82.8811 213.063H85.1145V215.232H82.8811C82.5422 215.232 82.2676 215.506 82.2676 215.845C82.2676 216.184 82.5422 216.459 82.8811 216.459H85.1145V219.893C85.1145 220.319 85.2041 220.638 85.3814 220.841C85.5501 221.035 85.764 221.124 86.0544 221.124C86.3345 221.124 86.5467 221.034 86.7227 220.84C86.9029 220.642 86.994 220.323 86.994 219.893V216.459H90.8338L92.9117 219.645C93.0562 219.856 93.2054 220.068 93.3541 220.277C93.4884 220.464 93.6348 220.629 93.7893 220.766C93.9285 220.891 94.0777 220.982 94.2328 221.038C94.3924 221.096 94.579 221.125 94.786 221.125C95.348 221.125 95.9235 220.953 95.9235 219.677V216.459H98.1794C98.5183 216.459 98.7931 216.184 98.7931 215.845C98.7931 215.506 98.5184 215.231 98.1794 215.231ZM94.0909 213.063V215.231H92.0915L90.6589 213.063H94.0909ZM86.9941 210.572L87.8186 211.836H86.9941V210.572ZM86.9941 215.231V213.063H88.6192L90.0333 215.231H86.9941ZM94.0909 218.257L92.9027 216.459H94.0909V218.257Z" fill="white"/>
</g>
<path d="M83.9384 260.166V253.693H84.8932V260.166H83.9384ZM87.9192 260.248C87.5826 260.248 87.246 260.181 86.9093 260.046C86.5788 259.912 86.2973 259.728 86.0647 259.495L86.3952 258.77C86.6217 258.99 86.8665 259.159 87.1297 259.275C87.3928 259.385 87.6591 259.44 87.9284 259.44C88.5037 259.44 88.9414 259.235 89.2413 258.825C89.5473 258.409 89.7003 257.791 89.7003 256.971V256.594C89.5779 256.968 89.3637 257.261 89.0576 257.476C88.7577 257.69 88.4058 257.797 88.0018 257.797C87.6285 257.797 87.2949 257.708 87.0011 257.531C86.7073 257.353 86.4778 257.111 86.3126 256.805C86.1473 256.493 86.0647 256.138 86.0647 255.74C86.0647 255.324 86.1534 254.957 86.3309 254.639C86.5084 254.314 86.7532 254.063 87.0654 253.886C87.3837 253.702 87.7478 253.61 88.1579 253.61C88.9414 253.61 89.5442 253.889 89.9666 254.446C90.395 255.003 90.6092 255.783 90.6092 256.787C90.6092 257.895 90.3705 258.749 89.8931 259.348C89.4218 259.948 88.7639 260.248 87.9192 260.248ZM88.2222 257.016C88.5955 257.016 88.8985 256.897 89.1311 256.658C89.3637 256.414 89.48 256.095 89.48 255.704C89.48 255.312 89.3637 254.994 89.1311 254.749C88.8985 254.498 88.5955 254.372 88.2222 254.372C87.8488 254.372 87.5459 254.498 87.3133 254.749C87.0807 254.994 86.9644 255.312 86.9644 255.704C86.9644 256.095 87.0807 256.414 87.3133 256.658C87.5459 256.897 87.8488 257.016 88.2222 257.016ZM93.6996 260.248C93.1365 260.248 92.7172 260.104 92.4418 259.817C92.1664 259.529 92.0287 259.113 92.0287 258.568V256.401H91.1565V255.685H92.0287V254.336H92.9559V255.685H94.3422V256.401H92.9559V258.495C92.9559 258.819 93.0233 259.064 93.1579 259.229C93.2987 259.394 93.5251 259.477 93.8373 259.477C93.9352 259.477 94.0301 259.468 94.1219 259.449C94.2137 259.425 94.3055 259.397 94.3973 259.367L94.5442 260.065C94.4524 260.12 94.3239 260.162 94.1586 260.193C93.9995 260.23 93.8465 260.248 93.6996 260.248ZM95.1431 260.166V253.693H96.0704V256.383C96.2234 256.126 96.4284 255.933 96.6855 255.805C96.9487 255.67 97.2425 255.603 97.5669 255.603C98.6257 255.603 99.1552 256.202 99.1552 257.402V260.166H98.2279V257.457C98.2279 257.072 98.1514 256.79 97.9984 256.613C97.8515 256.435 97.6189 256.346 97.3006 256.346C96.9273 256.346 96.6274 256.466 96.4009 256.704C96.1806 256.937 96.0704 257.246 96.0704 257.632V260.166H95.1431ZM102.174 260.239L102.101 259.459L102.698 259.422C103.298 259.373 103.597 259.03 103.597 258.394V253.693H104.543V258.394C104.543 258.951 104.399 259.382 104.112 259.688C103.824 259.994 103.399 260.166 102.835 260.202L102.174 260.239ZM107.379 260.248C107.067 260.248 106.788 260.187 106.544 260.065C106.299 259.942 106.103 259.777 105.956 259.569C105.815 259.361 105.745 259.125 105.745 258.862C105.745 258.531 105.827 258.271 105.993 258.081C106.164 257.892 106.443 257.754 106.828 257.668C107.22 257.583 107.746 257.54 108.407 257.54H108.719V257.301C108.719 256.952 108.646 256.701 108.499 256.548C108.352 256.395 108.11 256.319 107.774 256.319C107.517 256.319 107.26 256.359 107.003 256.438C106.746 256.512 106.482 256.631 106.213 256.796L105.928 256.144C106.161 255.979 106.452 255.847 106.801 255.75C107.149 255.652 107.483 255.603 107.801 255.603C108.413 255.603 108.866 255.75 109.16 256.043C109.454 256.331 109.601 256.784 109.601 257.402V260.166H108.729V259.422C108.618 259.679 108.447 259.881 108.214 260.028C107.982 260.175 107.703 260.248 107.379 260.248ZM107.563 259.587C107.893 259.587 108.169 259.471 108.389 259.238C108.609 259.006 108.719 258.712 108.719 258.357V258.109H108.416C107.97 258.109 107.618 258.13 107.361 258.173C107.11 258.216 106.929 258.29 106.819 258.394C106.715 258.492 106.663 258.629 106.663 258.807C106.663 259.039 106.742 259.229 106.902 259.376C107.061 259.517 107.281 259.587 107.563 259.587ZM110.878 260.166V255.685H111.778V256.429C111.931 256.16 112.139 255.955 112.402 255.814C112.671 255.673 112.971 255.603 113.302 255.603C114.361 255.603 114.89 256.202 114.89 257.402V260.166H113.963V257.457C113.963 257.072 113.886 256.79 113.733 256.613C113.586 256.435 113.354 256.346 113.035 256.346C112.662 256.346 112.362 256.466 112.136 256.704C111.915 256.937 111.805 257.246 111.805 257.632V260.166H110.878ZM117.765 260.248C116.682 260.248 116.14 259.645 116.14 258.44V255.685H117.067V258.449C117.067 258.81 117.141 259.076 117.288 259.247C117.435 259.419 117.667 259.505 117.985 259.505C118.334 259.505 118.616 259.388 118.83 259.156C119.05 258.923 119.161 258.611 119.161 258.219V255.685H120.088V260.166H119.188V259.449C119.041 259.713 118.845 259.912 118.601 260.046C118.356 260.181 118.077 260.248 117.765 260.248ZM122.827 260.248C122.515 260.248 122.236 260.187 121.991 260.065C121.747 259.942 121.551 259.777 121.404 259.569C121.263 259.361 121.193 259.125 121.193 258.862C121.193 258.531 121.275 258.271 121.441 258.081C121.612 257.892 121.89 257.754 122.276 257.668C122.668 257.583 123.194 257.54 123.855 257.54H124.167V257.301C124.167 256.952 124.094 256.701 123.947 256.548C123.8 256.395 123.558 256.319 123.222 256.319C122.965 256.319 122.708 256.359 122.45 256.438C122.193 256.512 121.93 256.631 121.661 256.796L121.376 256.144C121.609 255.979 121.9 255.847 122.248 255.75C122.597 255.652 122.931 255.603 123.249 255.603C123.861 255.603 124.314 255.75 124.608 256.043C124.902 256.331 125.049 256.784 125.049 257.402V260.166H124.176V259.422C124.066 259.679 123.895 259.881 123.662 260.028C123.43 260.175 123.151 260.248 122.827 260.248ZM123.011 259.587C123.341 259.587 123.616 259.471 123.837 259.238C124.057 259.006 124.167 258.712 124.167 258.357V258.109H123.864C123.418 258.109 123.066 258.13 122.809 258.173C122.558 258.216 122.377 258.29 122.267 258.394C122.163 258.492 122.111 258.629 122.111 258.807C122.111 259.039 122.19 259.229 122.349 259.376C122.509 259.517 122.729 259.587 123.011 259.587ZM126.326 260.166V255.685H127.226V256.484C127.458 255.952 127.942 255.655 128.676 255.593L128.979 255.575L129.043 256.365L128.483 256.42C127.669 256.499 127.262 256.919 127.262 257.678V260.166H126.326ZM130.488 261.818L131.286 260.046L129.414 255.685H130.405L131.782 259.091L133.178 255.685H134.132L131.461 261.818H130.488ZM137.339 260.166V259.459L139.496 257.145C139.796 256.821 140.01 256.527 140.139 256.264C140.273 256 140.341 255.734 140.341 255.465C140.341 254.767 139.931 254.418 139.111 254.418C138.486 254.418 137.926 254.654 137.43 255.125L137.091 254.4C137.336 254.161 137.648 253.972 138.027 253.831C138.407 253.684 138.801 253.61 139.212 253.61C139.879 253.61 140.39 253.763 140.745 254.069C141.106 254.375 141.286 254.813 141.286 255.382C141.286 255.768 141.192 256.144 141.002 256.512C140.818 256.879 140.528 257.27 140.13 257.687L138.532 259.367H141.544V260.166H137.339ZM144.818 260.248C144.065 260.248 143.489 259.964 143.092 259.394C142.7 258.819 142.504 257.996 142.504 256.925C142.504 255.835 142.7 255.012 143.092 254.455C143.489 253.892 144.065 253.61 144.818 253.61C145.576 253.61 146.152 253.892 146.544 254.455C146.935 255.012 147.131 255.832 147.131 256.915C147.131 257.993 146.932 258.819 146.534 259.394C146.143 259.964 145.57 260.248 144.818 260.248ZM144.818 259.459C145.283 259.459 145.628 259.254 145.855 258.843C146.081 258.433 146.195 257.791 146.195 256.915C146.195 256.04 146.081 255.404 145.855 255.006C145.635 254.602 145.289 254.4 144.818 254.4C144.352 254.4 144.007 254.602 143.78 255.006C143.554 255.41 143.44 256.046 143.44 256.915C143.44 257.791 143.554 258.433 143.78 258.843C144.007 259.254 144.352 259.459 144.818 259.459ZM148.349 260.166V259.459L150.506 257.145C150.806 256.821 151.02 256.527 151.149 256.264C151.283 256 151.351 255.734 151.351 255.465C151.351 254.767 150.941 254.418 150.12 254.418C149.496 254.418 148.936 254.654 148.44 255.125L148.101 254.4C148.345 254.161 148.658 253.972 149.037 253.831C149.417 253.684 149.811 253.61 150.221 253.61C150.889 253.61 151.4 253.763 151.755 254.069C152.116 254.375 152.296 254.813 152.296 255.382C152.296 255.768 152.201 256.144 152.012 256.512C151.828 256.879 151.537 257.27 151.14 257.687L149.542 259.367H152.553V260.166H148.349ZM154.147 260.166V259.367H155.616V254.795L154.469 255.511L154.083 254.804L155.892 253.693H156.562V259.367H157.939V260.166H154.147Z" fill="white"/>
<path d="M311.651 260.166V259.459L313.809 257.145C314.109 256.821 314.323 256.527 314.452 256.264C314.586 256 314.654 255.734 314.654 255.465C314.654 254.767 314.244 254.418 313.423 254.418C312.799 254.418 312.239 254.654 311.743 255.125L311.404 254.4C311.648 254.161 311.961 253.972 312.34 253.831C312.72 253.684 313.114 253.61 313.524 253.61C314.192 253.61 314.703 253.763 315.058 254.069C315.419 254.375 315.599 254.813 315.599 255.382C315.599 255.768 315.504 256.144 315.315 256.512C315.131 256.879 314.84 257.27 314.442 257.687L312.845 259.367H315.856V260.166H311.651ZM316.918 256.778V255.685H318.01V256.778H316.918ZM316.918 260.166V259.073H318.01V260.166H316.918ZM321.208 260.248C320.773 260.248 320.36 260.184 319.969 260.055C319.577 259.921 319.249 259.734 318.986 259.495L319.317 258.761C319.604 258.993 319.901 259.165 320.207 259.275C320.513 259.385 320.838 259.44 321.18 259.44C321.621 259.44 321.955 259.345 322.181 259.156C322.414 258.966 322.53 258.694 322.53 258.339C322.53 257.984 322.414 257.72 322.181 257.549C321.955 257.378 321.624 257.292 321.19 257.292H320.189V256.493H321.098C321.483 256.493 321.786 256.395 322.007 256.199C322.233 256.004 322.346 255.734 322.346 255.391C322.346 255.079 322.242 254.841 322.034 254.675C321.826 254.504 321.529 254.418 321.144 254.418C320.489 254.418 319.917 254.654 319.427 255.125L319.096 254.4C319.347 254.149 319.659 253.956 320.033 253.822C320.412 253.681 320.807 253.61 321.217 253.61C321.866 253.61 322.371 253.76 322.732 254.06C323.093 254.354 323.274 254.764 323.274 255.29C323.274 255.645 323.182 255.958 322.998 256.227C322.821 256.496 322.573 256.692 322.255 256.815C322.64 256.912 322.937 257.102 323.145 257.384C323.353 257.659 323.457 257.999 323.457 258.403C323.457 258.972 323.255 259.422 322.851 259.752C322.454 260.083 321.906 260.248 321.208 260.248ZM326.814 260.248C326.061 260.248 325.486 259.964 325.088 259.394C324.696 258.819 324.5 257.996 324.5 256.925C324.5 255.835 324.696 255.012 325.088 254.455C325.486 253.892 326.061 253.61 326.814 253.61C327.573 253.61 328.148 253.892 328.54 254.455C328.932 255.012 329.127 255.832 329.127 256.915C329.127 257.993 328.929 258.819 328.531 259.394C328.139 259.964 327.567 260.248 326.814 260.248ZM326.814 259.459C327.279 259.459 327.625 259.254 327.851 258.843C328.078 258.433 328.191 257.791 328.191 256.915C328.191 256.04 328.078 255.404 327.851 255.006C327.631 254.602 327.285 254.4 326.814 254.4C326.349 254.4 326.003 254.602 325.776 255.006C325.55 255.41 325.437 256.046 325.437 256.915C325.437 257.791 325.55 258.433 325.776 258.843C326.003 259.254 326.349 259.459 326.814 259.459ZM330.317 260.166V253.693H332.998C333.696 253.693 334.235 253.867 334.614 254.216C334.994 254.559 335.183 255.043 335.183 255.667C335.183 256.297 334.994 256.787 334.614 257.136C334.235 257.479 333.696 257.65 332.998 257.65H331.272V260.166H330.317ZM331.272 256.888H332.86C333.791 256.888 334.256 256.481 334.256 255.667C334.256 254.859 333.791 254.455 332.86 254.455H331.272V256.888ZM336.226 260.166V253.693H337.025L339.421 258.164L341.808 253.693H342.589V260.166H341.735V255.419L339.706 259.174H339.127L337.089 255.437V260.166H336.226Z" fill="white"/>
<g filter="url(#filter4_d_2225_18982)">
<path d="M290.878 294.042C283.748 284.206 279.442 272.554 278.34 260.12C277.238 247.686 279.375 234.853 284.561 222.757C289.748 210.662 297.824 199.677 308.074 190.777C318.324 181.876 330.432 175.334 343.325 171.73C356.217 168.127 369.498 167.572 381.989 170.117C394.48 172.661 405.796 178.225 414.935 186.317C424.075 194.408 430.755 204.777 434.384 216.504C438.013 228.232 438.48 240.956 435.742 253.551L414.242 251.344C416.225 242.222 415.887 233.007 413.259 224.513C410.63 216.02 405.792 208.511 399.173 202.651C392.554 196.791 384.359 192.761 375.312 190.918C366.266 189.075 356.648 189.477 347.311 192.087C337.973 194.697 329.204 199.435 321.781 205.881C314.357 212.327 308.509 220.282 304.752 229.042C300.996 237.802 299.448 247.096 300.246 256.102C301.044 265.107 304.163 273.545 309.327 280.669L290.878 294.042Z" fill="#FFF5EC" fill-opacity="0.06"/>
</g>
<g filter="url(#filter5_d_2225_18982)">
<path d="M390.905 118.807C398.554 130.824 402.967 144.614 403.716 158.839C404.464 173.064 401.522 187.241 395.175 199.994C388.828 212.747 379.293 223.642 367.493 231.623C355.694 239.603 342.032 244.398 327.833 245.541C313.634 246.684 299.381 244.137 286.457 238.147C273.532 232.157 262.376 222.928 254.071 211.355C245.766 199.781 240.594 186.258 239.057 172.096C237.519 157.935 239.669 143.616 245.298 130.53L267.619 140.132C263.645 149.369 262.128 159.477 263.213 169.474C264.298 179.471 267.949 189.018 273.812 197.188C279.675 205.358 287.55 211.873 296.674 216.102C305.798 220.33 315.859 222.128 325.883 221.321C335.906 220.514 345.551 217.13 353.88 211.496C362.21 205.862 368.942 198.171 373.422 189.168C377.902 180.166 379.979 170.158 379.451 160.116C378.923 150.074 375.807 140.339 370.407 131.856L390.905 118.807Z" fill="#DFFFED" fill-opacity="0.06"/>
</g>
<path d="M315.794 176.981C314.954 176.981 314.221 176.793 313.596 176.416C312.979 176.03 312.499 175.49 312.156 174.796C311.822 174.102 311.655 173.28 311.655 172.329C311.655 171.377 311.822 170.555 312.156 169.861C312.491 169.167 312.966 168.631 313.583 168.254C314.209 167.877 314.946 167.689 315.794 167.689C316.651 167.689 317.388 167.877 318.005 168.254C318.63 168.631 319.11 169.167 319.444 169.861C319.787 170.546 319.958 171.365 319.958 172.316C319.958 173.267 319.787 174.094 319.444 174.796C319.101 175.49 318.617 176.03 317.992 176.416C317.375 176.793 316.642 176.981 315.794 176.981ZM315.794 176.043C316.762 176.043 317.512 175.718 318.043 175.066C318.574 174.415 318.84 173.502 318.84 172.329C318.84 171.155 318.574 170.246 318.043 169.604C317.512 168.952 316.762 168.627 315.794 168.627C314.843 168.627 314.102 168.952 313.57 169.604C313.039 170.246 312.773 171.155 312.773 172.329C312.773 173.494 313.039 174.406 313.57 175.066C314.102 175.718 314.843 176.043 315.794 176.043ZM321.701 176.866V170.619H322.717V171.686C322.922 171.292 323.214 170.996 323.591 170.799C323.968 170.602 324.392 170.503 324.863 170.503C326.346 170.503 327.087 171.326 327.087 172.971V176.866H326.046V173.035C326.046 172.453 325.93 172.029 325.699 171.763C325.476 171.489 325.116 171.352 324.619 171.352C324.045 171.352 323.586 171.532 323.244 171.892C322.909 172.243 322.742 172.714 322.742 173.305V176.866H321.701ZM330.922 176.981C330.288 176.981 329.808 176.797 329.482 176.429C329.165 176.052 329.006 175.508 329.006 174.796V167.804H330.048V174.719C330.048 175.636 330.412 176.095 331.14 176.095C331.354 176.095 331.547 176.069 331.719 176.017L331.693 176.891C331.427 176.951 331.17 176.981 330.922 176.981ZM332.681 169.064V167.894H333.967V169.064H332.681ZM332.81 176.866V170.619H333.851V176.866H332.81ZM335.797 176.866V170.619H336.812V171.686C337.018 171.292 337.309 170.996 337.687 170.799C338.064 170.602 338.488 170.503 338.959 170.503C340.441 170.503 341.183 171.326 341.183 172.971V176.866H340.141V173.035C340.141 172.453 340.026 172.029 339.794 171.763C339.572 171.489 339.212 171.352 338.715 171.352C338.141 171.352 337.682 171.532 337.339 171.892C337.005 172.243 336.838 172.714 336.838 173.305V176.866H335.797ZM345.917 176.981C344.932 176.981 344.152 176.694 343.578 176.12C343.004 175.538 342.717 174.749 342.717 173.755C342.717 173.113 342.845 172.547 343.102 172.059C343.359 171.562 343.711 171.18 344.156 170.915C344.61 170.64 345.133 170.503 345.724 170.503C346.573 170.503 347.237 170.778 347.717 171.326C348.196 171.866 348.436 172.611 348.436 173.562V173.961H343.732C343.766 174.672 343.972 175.216 344.349 175.593C344.726 175.962 345.249 176.146 345.917 176.146C346.294 176.146 346.654 176.09 346.997 175.979C347.34 175.859 347.665 175.666 347.974 175.4L348.334 176.133C348.051 176.399 347.691 176.609 347.254 176.763C346.817 176.909 346.371 176.981 345.917 176.981ZM345.75 171.275C345.159 171.275 344.692 171.459 344.349 171.827C344.006 172.196 343.805 172.68 343.745 173.28H347.537C347.511 172.646 347.344 172.153 347.035 171.802C346.736 171.45 346.307 171.275 345.75 171.275Z" fill="white"/>
</g>
<g clip-path="url(#clip6_2225_18982)">
<rect x="381.562" y="142.75" width="309.395" height="134.041" rx="11.017" fill="#02A4EA"/>
<g clip-path="url(#clip7_2225_18982)">
<rect x="400.842" y="153.767" width="45.9043" height="13.7713" rx="4.59043" fill="white" fill-opacity="0.55"/>
</g>
</g>
</g>
</g>
<path d="M125.777 19.9834C131.01 19.9834 133.717 20.5244 133.717 28.8249C133.717 37.1253 138.86 51.111 157.265 51.111H267.748C286.153 51.111 291.297 37.1253 291.297 28.8249C291.297 20.5244 294.003 19.9834 299.236 19.9834H125.777Z" fill="black"/>
<path d="M158.024 37.592C161.736 37.592 164.746 34.5827 164.746 30.8705C164.746 27.1583 161.736 24.1489 158.024 24.1489C154.312 24.1489 151.303 27.1583 151.303 30.8705C151.303 34.5827 154.312 37.592 158.024 37.592Z" fill="#161616"/>
<path d="M158.025 35.016C160.315 35.016 162.171 33.1598 162.171 30.8701C162.171 28.5803 160.315 26.7241 158.025 26.7241C155.735 26.7241 153.879 28.5803 153.879 30.8701C153.879 33.1598 155.735 35.016 158.025 35.016Z" fill="#0A0D13"/>
<path d="M158.024 34.0292C159.769 34.0292 161.183 32.6149 161.183 30.8703C161.183 29.1257 159.769 27.7114 158.024 27.7114C156.28 27.7114 154.865 29.1257 154.865 30.8703C154.865 32.6149 156.28 34.0292 158.024 34.0292Z" fill="#091427"/>
<g filter="url(#filter6_f_2225_18982)">
<path fill-rule="evenodd" clip-rule="evenodd" d="M155.849 28.7573C155.474 28.7968 154.942 29.3685 154.903 30.4923C154.863 31.616 155.356 32.2272 155.632 32.2272C155.908 32.2272 157.052 30.5908 155.849 28.7573H155.849Z" fill="#235A91" fill-opacity="0.556075"/>
</g>
<g filter="url(#filter7_f_2225_18982)">
<path fill-rule="evenodd" clip-rule="evenodd" d="M158.54 28.3633C157.949 28.5452 157.835 29.4996 157.858 30.0451C157.881 30.5905 158.654 32.0222 159.585 31.704C160.517 31.3859 160.676 30.2041 160.29 29.4087C159.903 28.6133 159.199 28.0452 158.54 28.3633Z" fill="#235A91" fill-opacity="0.556075"/>
</g>
<defs>
<filter id="filter0_f_2225_18982" x="3.05308" y="0.604353" width="417.997" height="856.108" filterUnits="userSpaceOnUse" color-interpolation-filters="sRGB">
<feFlood flood-opacity="0" result="BackgroundImageFix"/>
<feBlend mode="normal" in="SourceGraphic" in2="BackgroundImageFix" result="shape"/>
<feGaussianBlur stdDeviation="1.1385" result="effect1_foregroundBlur_2225_18982"/>
</filter>
<filter id="filter1_f_2225_18982" x="176.453" y="5.23659" width="73.4428" height="9.82272" filterUnits="userSpaceOnUse" color-interpolation-filters="sRGB">
<feFlood flood-opacity="0" result="BackgroundImageFix"/>
<feBlend mode="normal" in="SourceGraphic" in2="BackgroundImageFix" result="shape"/>
<feGaussianBlur stdDeviation="2.06335" result="effect1_foregroundBlur_2225_18982"/>
</filter>
<filter id="filter2_d_2225_18982" x="58.3965" y="252.92" width="445.272" height="168.928" filterUnits="userSpaceOnUse" color-interpolation-filters="sRGB">
<feFlood flood-opacity="0" result="BackgroundImageFix"/>
<feColorMatrix in="SourceAlpha" type="matrix" values="0 0 0 0 0 0 0 0 0 0 0 0 0 0 0 0 0 0 127 0" result="hardAlpha"/>
<feOffset dx="91.8087" dy="3.67235"/>
<feGaussianBlur stdDeviation="22.9522"/>
<feComposite in2="hardAlpha" operator="out"/>
<feColorMatrix type="matrix" values="0 0 0 0 0 0 0 0 0 0 0 0 0 0 0 0 0 0 0.05 0"/>
<feBlend mode="normal" in2="BackgroundImageFix" result="effect1_dropShadow_2225_18982"/>
<feBlend mode="normal" in="SourceGraphic" in2="effect1_dropShadow_2225_18982" result="shape"/>
</filter>
<filter id="filter3_d_2225_18982" x="-42.5931" y="298.824" width="509.538" height="504.947" filterUnits="userSpaceOnUse" color-interpolation-filters="sRGB">
<feFlood flood-opacity="0" result="BackgroundImageFix"/>
<feColorMatrix in="SourceAlpha" type="matrix" values="0 0 0 0 0 0 0 0 0 0 0 0 0 0 0 0 0 0 127 0" result="hardAlpha"/>
<feMorphology radius="9.18087" operator="dilate" in="SourceAlpha" result="effect1_dropShadow_2225_18982"/>
<feOffset/>
<feGaussianBlur stdDeviation="45.9043"/>
<feComposite in2="hardAlpha" operator="out"/>
<feColorMatrix type="matrix" values="0 0 0 0 0 0 0 0 0 0 0 0 0 0 0 0 0 0 0.05 0"/>
<feBlend mode="normal" in2="BackgroundImageFix" result="effect1_dropShadow_2225_18982"/>
<feBlend mode="normal" in="SourceGraphic" in2="effect1_dropShadow_2225_18982" result="shape"/>
</filter>
<filter id="filter4_d_2225_18982" x="186.25" y="99.6899" width="343.059" height="309.112" filterUnits="userSpaceOnUse" color-interpolation-filters="sRGB">
<feFlood flood-opacity="0" result="BackgroundImageFix"/>
<feColorMatrix in="SourceAlpha" type="matrix" values="0 0 0 0 0 0 0 0 0 0 0 0 0 0 0 0 0 0 127 0" result="hardAlpha"/>
<feOffset dy="22.9522"/>
<feGaussianBlur stdDeviation="45.9043"/>
<feColorMatrix type="matrix" values="0 0 0 0 1 0 0 0 0 1 0 0 0 0 1 0 0 0 0.02 0"/>
<feBlend mode="normal" in2="BackgroundImageFix" result="effect1_dropShadow_2225_18982"/>
<feBlend mode="normal" in="SourceGraphic" in2="effect1_dropShadow_2225_18982" result="shape"/>
</filter>
<filter id="filter5_d_2225_18982" x="146.766" y="49.9511" width="348.873" height="310.617" filterUnits="userSpaceOnUse" color-interpolation-filters="sRGB">
<feFlood flood-opacity="0" result="BackgroundImageFix"/>
<feColorMatrix in="SourceAlpha" type="matrix" values="0 0 0 0 0 0 0 0 0 0 0 0 0 0 0 0 0 0 127 0" result="hardAlpha"/>
<feOffset dy="22.9522"/>
<feGaussianBlur stdDeviation="45.9043"/>
<feColorMatrix type="matrix" values="0 0 0 0 1 0 0 0 0 1 0 0 0 0 1 0 0 0 0.02 0"/>
<feBlend mode="normal" in2="BackgroundImageFix" result="effect1_dropShadow_2225_18982"/>
<feBlend mode="normal" in="SourceGraphic" in2="effect1_dropShadow_2225_18982" result="shape"/>
</filter>
<filter id="filter6_f_2225_18982" x="154.662" y="28.5189" width="1.96518" height="3.94663" filterUnits="userSpaceOnUse" color-interpolation-filters="sRGB">
<feFlood flood-opacity="0" result="BackgroundImageFix"/>
<feBlend mode="normal" in="SourceGraphic" in2="BackgroundImageFix" result="shape"/>
<feGaussianBlur stdDeviation="0.119225" result="effect1_foregroundBlur_2225_18982"/>
</filter>
<filter id="filter7_f_2225_18982" x="157.617" y="28.035" width="3.10776" height="3.95297" filterUnits="userSpaceOnUse" color-interpolation-filters="sRGB">
<feFlood flood-opacity="0" result="BackgroundImageFix"/>
<feBlend mode="normal" in="SourceGraphic" in2="BackgroundImageFix" result="shape"/>
<feGaussianBlur stdDeviation="0.119225" result="effect1_foregroundBlur_2225_18982"/>
</filter>
<linearGradient id="paint0_linear_2225_18982" x1="423.999" y1="256.506" x2="423.999" y2="355.445" gradientUnits="userSpaceOnUse">
<stop stop-color="#81AACE"/>
<stop offset="0.1" stop-color="#B9D2E8"/>
<stop offset="0.9" stop-color="#B9D2E8"/>
<stop offset="1" stop-color="#81AACE"/>
</linearGradient>
<linearGradient id="paint1_linear_2225_18982" x1="11.9716" y1="235.957" x2="11.9716" y2="296.958" gradientUnits="userSpaceOnUse">
<stop stop-color="#81AACE"/>
<stop offset="0.1" stop-color="#B9D2E8"/>
<stop offset="0.9" stop-color="#B9D2E8"/>
<stop offset="1" stop-color="#81AACE"/>
</linearGradient>
<linearGradient id="paint2_linear_2225_18982" x1="11.8661" y1="318.285" x2="11.8661" y2="379.286" gradientUnits="userSpaceOnUse">
<stop stop-color="#81AACE"/>
<stop offset="0.1" stop-color="#B9D2E8"/>
<stop offset="0.9" stop-color="#B9D2E8"/>
<stop offset="1" stop-color="#81AACE"/>
</linearGradient>
<linearGradient id="paint3_linear_2225_18982" x1="11.8662" y1="173.456" x2="11.8662" y2="204.142" gradientUnits="userSpaceOnUse">
<stop stop-color="#81AACE"/>
<stop offset="0.1" stop-color="#B9D2E8"/>
<stop offset="0.9" stop-color="#B9D2E8"/>
<stop offset="1" stop-color="#81AACE"/>
</linearGradient>
<linearGradient id="paint4_linear_2225_18982" x1="129.304" y1="211.001" x2="342.656" y2="672.383" gradientUnits="userSpaceOnUse">
<stop stop-color="#8668E0"/>
<stop offset="1" stop-color="#2E00B8"/>
</linearGradient>
<linearGradient id="paint5_linear_2225_18982" x1="340.667" y1="87.8315" x2="340.667" y2="103.001" gradientUnits="userSpaceOnUse">
<stop stop-color="#02A4EA"/>
<stop offset="1" stop-color="#02A4EA" stop-opacity="0"/>
</linearGradient>
<linearGradient id="paint6_linear_2225_18982" x1="340.666" y1="103.543" x2="340.666" y2="117.043" gradientUnits="userSpaceOnUse">
<stop stop-color="#02A4EA"/>
<stop offset="1" stop-color="#02A4EA" stop-opacity="0"/>
</linearGradient>
<clipPath id="clip0_2225_18982">
<rect x="23.5098" y="19.9834" width="377.853" height="818.222" rx="44.6688" fill="white"/>
</clipPath>
<clipPath id="clip1_2225_18982">
<rect width="377.334" height="1279.81" fill="white" transform="translate(23.5098 18.8081)"/>
</clipPath>
<clipPath id="clip2_2225_18982">
<rect width="18.2287" height="17.8084" fill="white" transform="translate(316.049 31.5503)"/>
</clipPath>
<clipPath id="clip3_2225_18982">
<rect width="11.017" height="11.017" fill="white" transform="translate(181.42 328.203)"/>
</clipPath>
<clipPath id="clip4_2225_18982">
<rect x="58.3965" y="142.75" width="309.395" height="134.041" rx="11.017" fill="white"/>
</clipPath>
<clipPath id="clip5_2225_18982">
<rect width="16.5256" height="16.5256" fill="white" transform="translate(82.2676 206.098)"/>
</clipPath>
<clipPath id="clip6_2225_18982">
<rect x="381.562" y="142.75" width="309.395" height="134.041" rx="11.017" fill="white"/>
</clipPath>
<clipPath id="clip7_2225_18982">
<rect x="400.842" y="153.767" width="45.9043" height="13.7713" rx="4.59043" fill="white"/>
</clipPath>
</defs>
</svg>
