<svg width="270" height="90" viewBox="0 0 270 90" fill="none" xmlns="http://www.w3.org/2000/svg">
<rect width="270" height="90" rx="45" fill="#0B182D"/>
<path fill-rule="evenodd" clip-rule="evenodd" d="M46.5 73.5C62.2401 73.5 75 60.7401 75 45C75 29.2599 62.2401 16.5 46.5 16.5C30.7599 16.5 18 29.2599 18 45C18 60.7401 30.7599 73.5 46.5 73.5ZM36.2972 28.1869L61.1902 42.4517C61.559 42.6518 61.8669 42.9477 62.0815 43.3083C62.2961 43.6688 62.4093 44.0806 62.4093 44.5002C62.4093 44.9198 62.2961 45.3315 62.0815 45.6921C61.8669 46.0526 61.559 46.3485 61.1902 46.5486L36.2972 60.8135C35.9289 61.0165 35.5154 61.1237 35.0949 61.1252C34.4675 61.1252 33.8657 60.877 33.4207 60.4348C32.9757 59.9926 32.7238 59.3923 32.7198 58.765V30.2353C32.7194 29.8232 32.8276 29.4183 33.0334 29.0613C33.2393 28.7043 33.5356 28.4078 33.8925 28.2017C34.2568 27.9884 34.6707 27.8748 35.0929 27.8721C35.515 27.8695 35.9303 27.9781 36.2972 28.1869ZM52.18 48.983L49.3745 46.1775L39.0878 56.4642L52.18 48.983ZM52.18 40.0174L39.0878 32.5213L49.3745 42.8228L52.18 40.0174ZM51.0519 44.5002L54.3027 47.751L60.0027 44.5002L54.3027 41.2494L51.0519 44.5002Z" fill="white"/>
<path d="M96.64 30V15.9H101.62C103.94 15.9 105.727 16.5067 106.98 17.72C108.247 18.9333 108.88 20.6733 108.88 22.94C108.88 25.2067 108.247 26.9533 106.98 28.18C105.727 29.3933 103.94 30 101.62 30H96.64ZM98.72 28.26H101.5C104.98 28.26 106.72 26.4867 106.72 22.94C106.72 19.4067 104.98 17.64 101.5 17.64H98.72V28.26ZM115.68 30.18C114.693 30.18 113.84 29.9733 113.12 29.56C112.4 29.1467 111.84 28.5667 111.44 27.82C111.053 27.06 110.86 26.16 110.86 25.12C110.86 24.08 111.053 23.1867 111.44 22.44C111.84 21.68 112.4 21.0933 113.12 20.68C113.84 20.2667 114.693 20.06 115.68 20.06C116.64 20.06 117.48 20.2667 118.2 20.68C118.92 21.0933 119.48 21.68 119.88 22.44C120.28 23.1867 120.48 24.08 120.48 25.12C120.48 26.16 120.28 27.06 119.88 27.82C119.48 28.5667 118.92 29.1467 118.2 29.56C117.48 29.9733 116.64 30.18 115.68 30.18ZM115.68 28.62C116.506 28.62 117.173 28.32 117.68 27.72C118.186 27.12 118.44 26.2533 118.44 25.12C118.44 23.9867 118.186 23.1267 117.68 22.54C117.173 21.94 116.506 21.64 115.68 21.64C114.84 21.64 114.166 21.94 113.66 22.54C113.153 23.1267 112.9 23.9867 112.9 25.12C112.9 26.2533 113.153 27.12 113.66 27.72C114.166 28.32 114.84 28.62 115.68 28.62ZM125.212 30L121.492 20.24H123.572L126.192 27.64L128.892 20.24H130.452L133.112 27.68L135.772 20.24H137.752L134.032 30H132.192L129.612 23.02L127.052 30H125.212ZM139.486 30V20.24H141.446V21.86C141.78 21.2733 142.233 20.8267 142.806 20.52C143.393 20.2133 144.046 20.06 144.766 20.06C147.073 20.06 148.226 21.3667 148.226 23.98V30H146.206V24.1C146.206 23.26 146.04 22.6467 145.706 22.26C145.386 21.8733 144.88 21.68 144.186 21.68C143.373 21.68 142.72 21.94 142.226 22.46C141.746 22.9667 141.506 23.64 141.506 24.48V30H139.486ZM154.19 30.18C153.123 30.18 152.323 29.88 151.79 29.28C151.27 28.68 151.01 27.8 151.01 26.64V15.9H153.03V26.52C153.03 27.84 153.57 28.5 154.65 28.5C154.81 28.5 154.957 28.4933 155.09 28.48C155.237 28.4667 155.383 28.44 155.53 28.4L155.49 30.02C155.037 30.1267 154.603 30.18 154.19 30.18ZM161.265 30.18C160.279 30.18 159.425 29.9733 158.705 29.56C157.985 29.1467 157.425 28.5667 157.025 27.82C156.639 27.06 156.445 26.16 156.445 25.12C156.445 24.08 156.639 23.1867 157.025 22.44C157.425 21.68 157.985 21.0933 158.705 20.68C159.425 20.2667 160.279 20.06 161.265 20.06C162.225 20.06 163.065 20.2667 163.785 20.68C164.505 21.0933 165.065 21.68 165.465 22.44C165.865 23.1867 166.065 24.08 166.065 25.12C166.065 26.16 165.865 27.06 165.465 27.82C165.065 28.5667 164.505 29.1467 163.785 29.56C163.065 29.9733 162.225 30.18 161.265 30.18ZM161.265 28.62C162.092 28.62 162.759 28.32 163.265 27.72C163.772 27.12 164.025 26.2533 164.025 25.12C164.025 23.9867 163.772 23.1267 163.265 22.54C162.759 21.94 162.092 21.64 161.265 21.64C160.425 21.64 159.752 21.94 159.245 22.54C158.739 23.1267 158.485 23.9867 158.485 25.12C158.485 26.2533 158.739 27.12 159.245 27.72C159.752 28.32 160.425 28.62 161.265 28.62ZM171.454 30.18C170.774 30.18 170.167 30.0467 169.634 29.78C169.101 29.5133 168.674 29.1533 168.354 28.7C168.047 28.2467 167.894 27.7333 167.894 27.16C167.894 26.44 168.074 25.8733 168.434 25.46C168.807 25.0467 169.414 24.7467 170.254 24.56C171.107 24.3733 172.254 24.28 173.694 24.28H174.374V23.76C174.374 23 174.214 22.4533 173.894 22.12C173.574 21.7867 173.047 21.62 172.314 21.62C171.754 21.62 171.194 21.7067 170.634 21.88C170.074 22.04 169.501 22.3 168.914 22.66L168.294 21.24C168.801 20.88 169.434 20.5933 170.194 20.38C170.954 20.1667 171.681 20.06 172.374 20.06C173.707 20.06 174.694 20.38 175.334 21.02C175.974 21.6467 176.294 22.6333 176.294 23.98V30H174.394V28.38C174.154 28.94 173.781 29.38 173.274 29.7C172.767 30.02 172.161 30.18 171.454 30.18ZM171.854 28.74C172.574 28.74 173.174 28.4867 173.654 27.98C174.134 27.4733 174.374 26.8333 174.374 26.06V25.52H173.714C172.741 25.52 171.974 25.5667 171.414 25.66C170.867 25.7533 170.474 25.9133 170.234 26.14C170.007 26.3533 169.894 26.6533 169.894 27.04C169.894 27.5467 170.067 27.96 170.414 28.28C170.761 28.5867 171.241 28.74 171.854 28.74ZM182.796 30.18C181.943 30.18 181.19 29.98 180.536 29.58C179.896 29.1667 179.396 28.58 179.036 27.82C178.676 27.06 178.496 26.16 178.496 25.12C178.496 24.08 178.676 23.1867 179.036 22.44C179.396 21.68 179.896 21.0933 180.536 20.68C181.176 20.2667 181.93 20.06 182.796 20.06C183.53 20.06 184.183 20.22 184.756 20.54C185.33 20.86 185.756 21.2933 186.036 21.84V15.9H188.056V30H186.076V28.3C185.796 28.8867 185.363 29.3467 184.776 29.68C184.203 30.0133 183.543 30.18 182.796 30.18ZM183.316 28.62C184.143 28.62 184.81 28.32 185.316 27.72C185.823 27.12 186.076 26.2533 186.076 25.12C186.076 23.9867 185.823 23.1267 185.316 22.54C184.81 21.94 184.143 21.64 183.316 21.64C182.476 21.64 181.803 21.94 181.296 22.54C180.79 23.1267 180.536 23.9867 180.536 25.12C180.536 26.2533 180.79 27.12 181.296 27.72C181.803 28.32 182.476 28.62 183.316 28.62ZM200.387 30.18C199.4 30.18 198.547 29.9733 197.827 29.56C197.107 29.1467 196.547 28.5667 196.147 27.82C195.76 27.06 195.567 26.16 195.567 25.12C195.567 24.08 195.76 23.1867 196.147 22.44C196.547 21.68 197.107 21.0933 197.827 20.68C198.547 20.2667 199.4 20.06 200.387 20.06C201.347 20.06 202.187 20.2667 202.907 20.68C203.627 21.0933 204.187 21.68 204.587 22.44C204.987 23.1867 205.187 24.08 205.187 25.12C205.187 26.16 204.987 27.06 204.587 27.82C204.187 28.5667 203.627 29.1467 202.907 29.56C202.187 29.9733 201.347 30.18 200.387 30.18ZM200.387 28.62C201.213 28.62 201.88 28.32 202.387 27.72C202.893 27.12 203.147 26.2533 203.147 25.12C203.147 23.9867 202.893 23.1267 202.387 22.54C201.88 21.94 201.213 21.64 200.387 21.64C199.547 21.64 198.873 21.94 198.367 22.54C197.86 23.1267 197.607 23.9867 197.607 25.12C197.607 26.2533 197.86 27.12 198.367 27.72C198.873 28.32 199.547 28.62 200.387 28.62ZM207.455 30V20.24H209.415V21.86C209.748 21.2733 210.202 20.8267 210.775 20.52C211.362 20.2133 212.015 20.06 212.735 20.06C215.042 20.06 216.195 21.3667 216.195 23.98V30H214.175V24.1C214.175 23.26 214.008 22.6467 213.675 22.26C213.355 21.8733 212.848 21.68 212.155 21.68C211.342 21.68 210.688 21.94 210.195 22.46C209.715 22.9667 209.475 23.64 209.475 24.48V30H207.455Z" fill="white"/>
<path d="M91.156 70V50.26H99.724C101.889 50.26 103.56 50.8013 104.736 51.884C105.912 52.9667 106.5 54.4787 106.5 56.42C106.5 58.3613 105.912 59.8827 104.736 60.984C103.56 62.0667 101.889 62.608 99.724 62.608H94.74V70H91.156ZM94.74 59.78H99.164C101.74 59.78 103.028 58.66 103.028 56.42C103.028 54.1987 101.74 53.088 99.164 53.088H94.74V59.78ZM113.846 70.28C112.222 70.28 111.018 69.8413 110.234 68.964C109.468 68.068 109.086 66.7613 109.086 65.044V50.26H112.586V64.876C112.586 66.556 113.295 67.396 114.714 67.396C114.919 67.396 115.124 67.3867 115.33 67.368C115.535 67.3493 115.731 67.312 115.918 67.256L115.862 70.028C115.19 70.196 114.518 70.28 113.846 70.28ZM122.535 70.28C121.546 70.28 120.659 70.0933 119.875 69.72C119.11 69.328 118.503 68.8053 118.055 68.152C117.626 67.4987 117.411 66.7613 117.411 65.94C117.411 64.932 117.672 64.1387 118.195 63.56C118.718 62.9627 119.567 62.5333 120.743 62.272C121.919 62.0107 123.496 61.88 125.475 61.88H126.455V61.292C126.455 60.3587 126.25 59.6867 125.839 59.276C125.428 58.8653 124.738 58.66 123.767 58.66C123.002 58.66 122.218 58.7813 121.415 59.024C120.612 59.248 119.8 59.6027 118.979 60.088L117.971 57.708C118.456 57.372 119.026 57.0827 119.679 56.84C120.351 56.5787 121.051 56.3827 121.779 56.252C122.526 56.1027 123.226 56.028 123.879 56.028C125.876 56.028 127.36 56.4947 128.331 57.428C129.302 58.3427 129.787 59.7707 129.787 61.712V70H126.511V67.816C126.194 68.5813 125.69 69.188 124.999 69.636C124.308 70.0653 123.487 70.28 122.535 70.28ZM123.263 67.872C124.178 67.872 124.934 67.5547 125.531 66.92C126.147 66.2853 126.455 65.4827 126.455 64.512V63.896H125.503C123.748 63.896 122.526 64.036 121.835 64.316C121.163 64.5773 120.827 65.0627 120.827 65.772C120.827 66.388 121.042 66.892 121.471 67.284C121.9 67.676 122.498 67.872 123.263 67.872ZM134.435 75.04L136.955 69.44L131.271 56.308H134.995L138.831 65.884L142.751 56.308H146.279L138.047 75.04H134.435ZM162.628 70.28C161.079 70.28 159.641 70.084 158.316 69.692C156.991 69.2813 155.871 68.7307 154.956 68.04L156.048 65.212C156.963 65.8653 157.961 66.3693 159.044 66.724C160.145 67.0787 161.34 67.256 162.628 67.256C164.103 67.256 165.176 67.0133 165.848 66.528C166.52 66.024 166.856 65.38 166.856 64.596C166.856 63.9427 166.613 63.4293 166.128 63.056C165.661 62.6827 164.849 62.3747 163.692 62.132L160.612 61.488C157.103 60.7413 155.348 58.94 155.348 56.084C155.348 54.852 155.675 53.7787 156.328 52.864C156.981 51.9493 157.887 51.24 159.044 50.736C160.201 50.232 161.536 49.98 163.048 49.98C164.392 49.98 165.652 50.1853 166.828 50.596C168.004 50.988 168.984 51.548 169.768 52.276L168.676 54.964C167.127 53.6573 165.241 53.004 163.02 53.004C161.732 53.004 160.724 53.2747 159.996 53.816C159.268 54.3573 158.904 55.0667 158.904 55.944C158.904 56.616 159.128 57.1573 159.576 57.568C160.024 57.96 160.789 58.268 161.872 58.492L164.924 59.136C166.772 59.528 168.144 60.144 169.04 60.984C169.955 61.824 170.412 62.944 170.412 64.344C170.412 65.52 170.095 66.556 169.46 67.452C168.825 68.348 167.92 69.048 166.744 69.552C165.587 70.0373 164.215 70.28 162.628 70.28ZM179.287 70.28C175.666 70.28 173.855 68.488 173.855 64.904V58.94H171.223V56.308H173.855V52.22H177.355V56.308H181.499V58.94H177.355V64.708C177.355 65.604 177.551 66.276 177.943 66.724C178.335 67.172 178.97 67.396 179.847 67.396C180.109 67.396 180.379 67.368 180.659 67.312C180.939 67.2373 181.229 67.1627 181.527 67.088L182.059 69.664C181.723 69.8507 181.294 70 180.771 70.112C180.267 70.224 179.773 70.28 179.287 70.28ZM189.869 70.28C188.45 70.28 187.218 69.9907 186.173 69.412C185.127 68.8333 184.315 68.012 183.737 66.948C183.158 65.8653 182.869 64.596 182.869 63.14C182.869 61.684 183.158 60.424 183.737 59.36C184.315 58.296 185.127 57.4747 186.173 56.896C187.218 56.3173 188.45 56.028 189.869 56.028C191.287 56.028 192.519 56.3173 193.565 56.896C194.61 57.4747 195.422 58.296 196.001 59.36C196.579 60.424 196.869 61.684 196.869 63.14C196.869 64.596 196.579 65.8653 196.001 66.948C195.422 68.012 194.61 68.8333 193.565 69.412C192.519 69.9907 191.287 70.28 189.869 70.28ZM189.869 67.62C190.914 67.62 191.754 67.2467 192.389 66.5C193.023 65.7347 193.341 64.6147 193.341 63.14C193.341 61.6467 193.023 60.536 192.389 59.808C191.754 59.0613 190.914 58.688 189.869 58.688C188.823 58.688 187.983 59.0613 187.349 59.808C186.714 60.536 186.397 61.6467 186.397 63.14C186.397 64.6147 186.714 65.7347 187.349 66.5C187.983 67.2467 188.823 67.62 189.869 67.62ZM199.758 70V56.308H203.174V58.716C203.846 57.092 205.283 56.196 207.486 56.028L208.55 55.944L208.774 58.912L206.758 59.108C204.462 59.332 203.314 60.508 203.314 62.636V70H199.758ZM217.252 70.28C215.702 70.28 214.368 69.9907 213.248 69.412C212.128 68.8333 211.26 68.012 210.644 66.948C210.046 65.884 209.748 64.624 209.748 63.168C209.748 61.7493 210.037 60.508 210.616 59.444C211.213 58.38 212.025 57.5493 213.052 56.952C214.097 56.336 215.282 56.028 216.608 56.028C218.549 56.028 220.08 56.644 221.2 57.876C222.338 59.108 222.908 60.788 222.908 62.916V63.952H213.108C213.369 66.3973 214.769 67.62 217.308 67.62C218.073 67.62 218.838 67.508 219.604 67.284C220.369 67.0413 221.069 66.668 221.704 66.164L222.684 68.516C222.03 69.0573 221.209 69.4867 220.22 69.804C219.23 70.1213 218.241 70.28 217.252 70.28ZM216.748 58.408C215.721 58.408 214.89 58.7253 214.256 59.36C213.621 59.9947 213.238 60.8533 213.108 61.936H219.996C219.921 60.7973 219.604 59.9293 219.044 59.332C218.502 58.716 217.737 58.408 216.748 58.408Z" fill="white"/>
</svg>
