<svg width="48" height="48" viewBox="0 0 48 48" fill="none" xmlns="http://www.w3.org/2000/svg">
<path d="M33.8 45.5H14.2C9.96001 45.5 6.5 42.04 6.5 37.8V10.2C6.5 5.96001 9.96001 2.5 14.2 2.5H33.8C38.04 2.5 41.5 5.96001 41.5 10.2V37.8C41.5 42.04 38.04 45.5 33.8 45.5ZM14.2 5.5C11.62 5.5 9.5 7.60001 9.5 10.2V37.8C9.5 40.38 11.6 42.5 14.2 42.5H33.8C36.38 42.5 38.5 40.4 38.5 37.8V10.2C38.5 7.62001 36.4 5.5 33.8 5.5H14.2Z" fill="#0E60E2"/>
<path d="M37 27.5H11C8.52 27.5 6.5 25.48 6.5 23V19C6.5 16.52 8.52 14.5 11 14.5H37C39.48 14.5 41.5 16.52 41.5 19V23C41.5 25.48 39.48 27.5 37 27.5ZM11 17.5C10.18 17.5 9.5 18.18 9.5 19V23C9.5 23.82 10.18 24.5 11 24.5H37C37.82 24.5 38.5 23.82 38.5 23V19C38.5 18.18 37.82 17.5 37 17.5H11Z" fill="#0E60E2"/>
<path d="M16 37.5002C15.34 37.5002 14.7 37.2402 14.24 36.7602C14.12 36.6602 14.02 36.5202 13.92 36.3802C13.84 36.2602 13.76 36.1002 13.7 35.9602C13.62 35.8002 13.58 35.6401 13.54 35.4801C13.52 35.3201 13.5 35.1602 13.5 35.0002C13.5 34.8402 13.52 34.6802 13.54 34.5202C13.58 34.3602 13.62 34.2001 13.7 34.0401C13.76 33.9001 13.84 33.7402 13.92 33.6202C14.02 33.4802 14.12 33.3402 14.24 33.2402C15.16 32.3002 16.82 32.3002 17.76 33.2402C17.88 33.3402 17.98 33.4802 18.08 33.6202C18.16 33.7402 18.24 33.9001 18.3 34.0401C18.38 34.2001 18.42 34.3602 18.46 34.5202C18.48 34.6802 18.5 34.8402 18.5 35.0002C18.5 35.1602 18.48 35.3201 18.46 35.4801C18.42 35.6401 18.38 35.8002 18.3 35.9602C18.24 36.1002 18.16 36.2602 18.08 36.3802C17.98 36.5202 17.88 36.6602 17.76 36.7602C17.3 37.2402 16.66 37.5002 16 37.5002Z" fill="#0E60E2"/>
<path d="M32 37.5002C31.34 37.5002 30.7 37.2402 30.24 36.7602C29.76 36.3002 29.5 35.6602 29.5 35.0002C29.5 34.3402 29.76 33.7002 30.24 33.2402C31.16 32.3002 32.84 32.3002 33.76 33.2402C34.24 33.7002 34.5 34.3402 34.5 35.0002C34.5 35.6602 34.24 36.3002 33.76 36.7602C33.3 37.2402 32.66 37.5002 32 37.5002Z" fill="#0E60E2"/>
<path d="M29 11.5H19C18.18 11.5 17.5 10.82 17.5 10C17.5 9.18 18.18 8.5 19 8.5H29C29.82 8.5 30.5 9.18 30.5 10C30.5 10.82 29.82 11.5 29 11.5Z" fill="#0E60E2"/>
</svg>
