<svg width="48" height="48" viewBox="0 0 48 48" fill="none" xmlns="http://www.w3.org/2000/svg">
<path d="M30.9995 31.4995C30.6395 31.4995 30.2395 31.4795 29.8795 31.4595C29.1395 31.4195 28.5395 30.8195 28.4795 30.0795C28.0395 24.4995 23.4995 19.9795 17.9395 19.5395C17.1995 19.4795 16.5995 18.8795 16.5595 18.1395C16.5395 17.7795 16.5195 17.3795 16.5195 17.0195C16.5195 9.01953 23.0195 2.51953 31.0195 2.51953C39.0195 2.51953 45.5195 9.01953 45.5195 17.0195C45.5195 25.0195 38.9995 31.4995 30.9995 31.4995ZM19.4995 16.7195C25.4595 17.7795 30.2395 22.5395 31.2795 28.4995C37.4995 28.3395 42.4995 23.2595 42.4995 16.9995C42.4995 10.6595 37.3395 5.49951 30.9995 5.49951C24.7595 5.49951 19.6595 10.4995 19.4995 16.7195Z" fill="#0E60E2"/>
<path d="M17 45.5C9 45.5 2.5 39 2.5 31C2.5 23 9 16.5 17 16.5C17.36 16.5 17.76 16.52 18.12 16.54C25.18 17.1 30.9 22.82 31.44 29.84C31.46 30.24 31.48 30.64 31.48 31C31.5 39 25 45.5 17 45.5ZM17 19.5C10.66 19.5 5.5 24.66 5.5 31C5.5 37.34 10.66 42.5 17 42.5C23.34 42.5 28.5 37.34 28.5 31C28.5 30.68 28.48 30.36 28.46 30.04C28.02 24.5 23.48 19.96 17.92 19.52C17.64 19.52 17.32 19.5 17 19.5Z" fill="#0E60E2"/>
<path d="M17 37.5005C16.46 37.5005 15.94 37.2005 15.68 36.7205L14.12 33.8805L11.28 32.3205C10.8 32.0605 10.5 31.5605 10.5 31.0005C10.5 30.4405 10.8 29.9405 11.28 29.6805L14.12 28.1205L15.68 25.2805C16.2 24.3205 17.78 24.3205 18.32 25.2805L19.88 28.1205L22.72 29.6805C23.2 29.9405 23.5 30.4405 23.5 31.0005C23.5 31.5605 23.2 32.0605 22.72 32.3205L19.88 33.8805L18.32 36.7205C18.06 37.2005 17.54 37.5005 17 37.5005ZM15.12 31.0005L15.94 31.4605C16.2 31.6005 16.4 31.8005 16.54 32.0605L17 32.8805L17.46 32.0605C17.6 31.8005 17.8 31.6005 18.06 31.4605L18.88 31.0005L18.06 30.5405C17.8 30.4005 17.6 30.2005 17.46 29.9405L17 29.1205L16.54 29.9405C16.4 30.2005 16.2 30.4005 15.94 30.5405L15.12 31.0005Z" fill="#0E60E2"/>
</svg>
