<svg width="48" height="48" viewBox="0 0 48 48" fill="none" xmlns="http://www.w3.org/2000/svg">
<path d="M34 18C34 25.74 27.28 32 19 32L17.14 34.24L16.04 35.5601C15.1 36.6801 13.3 36.44 12.68 35.1L10 29.2C6.36 26.64 4 22.58 4 18C4 10.26 10.72 4 19 4C25.04 4 30.26 7.34001 32.6 12.14C33.5 13.92 34 15.9 34 18Z" stroke="#0E60E2" stroke-width="3" stroke-linecap="round" stroke-linejoin="round"/>
<path d="M44.0006 25.7201C44.0006 30.3001 41.6406 34.3602 38.0006 36.9202L35.3206 42.8201C34.7006 44.1601 32.9006 44.4202 31.9606 43.2802L29.0006 39.7201C24.1606 39.7201 19.8406 37.5801 17.1406 34.2401L19.0006 32.0001C27.2806 32.0001 34.0006 25.7401 34.0006 18.0001C34.0006 15.9001 33.5006 13.9201 32.6006 12.1401C39.1406 13.6401 44.0006 19.1601 44.0006 25.7201Z" stroke="#0E60E2" stroke-width="3" stroke-linecap="round" stroke-linejoin="round"/>
<path d="M14 18H24" stroke="#0E60E2" stroke-width="3" stroke-linecap="round" stroke-linejoin="round"/>
</svg>
