<svg width="48" height="48" viewBox="0 0 48 48" fill="none" xmlns="http://www.w3.org/2000/svg">
<path d="M33.3783 45.5H14.6183C6.27828 45.5 3.73828 42.96 3.73828 34.62V33.7C3.73828 32.88 4.41828 32.2 5.23828 32.2C6.99828 32.2 8.43828 30.76 8.43828 29C8.43828 27.24 6.99828 25.8 5.23828 25.8C4.41828 25.8 3.73828 25.12 3.73828 24.3V23.38C3.73828 15.04 6.27828 12.5 14.6183 12.5H33.3783C41.7183 12.5 44.2583 15.04 44.2583 23.38V25.26C44.2583 26.08 43.5783 26.76 42.7583 26.76C40.9983 26.76 39.5583 28.2 39.5583 29.96C39.5583 31.72 40.9983 33.14 42.7583 33.14C43.5783 33.14 44.2583 33.82 44.2583 34.64C44.2383 42.96 41.6983 45.5 33.3783 45.5ZM6.75828 35.02C6.79828 41.38 8.05828 42.5 14.6383 42.5H33.3983C39.6383 42.5 41.0783 41.48 41.2583 35.94C38.5783 35.26 36.5783 32.84 36.5783 29.94C36.5783 27.04 38.5783 24.6 41.2783 23.92V23.36C41.2783 16.66 40.0983 15.48 33.3983 15.48H14.6183C8.05828 15.48 6.79828 16.62 6.73828 22.96C9.43828 23.64 11.4383 26.08 11.4383 28.98C11.4383 31.88 9.43828 34.34 6.75828 35.02Z" fill="#0E60E2"/>
<path d="M20 20.5C19.18 20.5 18.5 19.82 18.5 19V14C18.5 13.18 19.18 12.5 20 12.5C20.82 12.5 21.5 13.18 21.5 14V19C21.5 19.82 20.82 20.5 20 20.5Z" fill="#0E60E2"/>
<path d="M20 33.8397C19.18 33.8397 18.5 33.1597 18.5 32.3397V25.6797C18.5 24.8597 19.18 24.1797 20 24.1797C20.82 24.1797 21.5 24.8597 21.5 25.6797V32.3397C21.5 33.1597 20.82 33.8397 20 33.8397Z" fill="#0E60E2"/>
<path d="M20 45.5C19.18 45.5 18.5 44.82 18.5 44V39C18.5 38.18 19.18 37.5 20 37.5C20.82 37.5 21.5 38.18 21.5 39V44C21.5 44.82 20.82 45.5 20 45.5Z" fill="#0E60E2"/>
<path d="M32.6603 15.5003H14.4803C13.8803 15.5003 13.3203 15.1403 13.1003 14.5803C12.8803 14.0203 13.0003 13.3603 13.4203 12.9403L19.2803 7.08027C24.6803 1.68027 27.9803 1.68027 33.3603 7.08027L34.5603 8.28027C34.8403 8.56027 35.0003 8.94027 35.0003 9.34027C35.0003 9.74027 34.8403 10.1203 34.5603 10.4003C33.7603 11.2003 33.5403 12.3803 34.0003 13.4003C34.2203 13.8603 34.1803 14.4003 33.9003 14.8403C33.6403 15.2403 33.1603 15.5003 32.6603 15.5003ZM18.1003 12.5003H30.7603C30.7203 11.4403 30.9803 10.3803 31.5203 9.46027L31.2603 9.20027C27.0803 5.02027 25.6003 5.02027 21.4203 9.20027L18.1003 12.5003Z" fill="#0E60E2"/>
</svg>
