<svg width="48" height="48" viewBox="0 0 48 48" fill="none" xmlns="http://www.w3.org/2000/svg">
<path d="M14.3396 45.5002C9.5796 45.5002 5.67969 42.0403 5.67969 37.7803V33.7002C5.67969 32.8802 6.35969 32.2002 7.17969 32.2002C7.99969 32.2002 8.67969 32.8802 8.67969 33.7002C8.67969 36.2002 11.0996 38.0802 14.3396 38.0802C17.5796 38.0802 19.9996 36.2002 19.9996 33.7002C19.9996 32.8802 20.6796 32.2002 21.4996 32.2002C22.3196 32.2002 22.9996 32.8802 22.9996 33.7002V37.7803C22.9996 42.0403 19.1196 45.5002 14.3396 45.5002ZM9.19958 39.7402C10.0796 41.3802 12.0596 42.5002 14.3396 42.5002C16.6196 42.5002 18.5996 41.3602 19.4796 39.7402C18.0596 40.6002 16.2996 41.1002 14.3396 41.1002C12.3796 41.1002 10.6196 40.6002 9.19958 39.7402Z" fill="#0E60E2"/>
<path d="M14.3396 35.5999C11.0596 35.5999 8.11967 34.0999 6.65967 31.7199C6.01967 30.6799 5.67969 29.4599 5.67969 28.2199C5.67969 26.1199 6.59966 24.1598 8.27966 22.6998C11.5197 19.8598 17.0996 19.8599 20.3596 22.6799C22.0396 24.1599 22.9796 26.1199 22.9796 28.2199C22.9796 29.4599 22.6396 30.6799 21.9996 31.7199C20.5596 34.0999 17.6196 35.5999 14.3396 35.5999ZM14.3396 23.4999C12.7796 23.4999 11.3396 24.0198 10.2596 24.9598C9.23964 25.8398 8.67969 26.9999 8.67969 28.2199C8.67969 28.9199 8.8596 29.5599 9.2196 30.1599C10.1396 31.6799 12.0996 32.6199 14.3396 32.6199C16.5796 32.6199 18.5396 31.6799 19.4396 30.1799C19.7996 29.5999 19.9796 28.9399 19.9796 28.2399C19.9796 27.0199 19.4197 25.8598 18.3997 24.9598C17.3397 24.0198 15.8996 23.4999 14.3396 23.4999Z" fill="#0E60E2"/>
<path d="M14.3396 41.1C9.3996 41.1 5.67969 37.92 5.67969 33.72V28.22C5.67969 23.96 9.5596 20.5 14.3396 20.5C16.5996 20.5 18.7596 21.2801 20.3796 22.6801C22.0596 24.1601 22.9996 26.12 22.9996 28.22V33.72C22.9996 37.92 19.2796 41.1 14.3396 41.1ZM14.3396 23.5C11.2196 23.5 8.67969 25.62 8.67969 28.22V33.72C8.67969 36.22 11.0996 38.1 14.3396 38.1C17.5796 38.1 19.9996 36.22 19.9996 33.72V28.22C19.9996 27 19.4397 25.8399 18.4197 24.9399C17.3397 24.0199 15.8996 23.5 14.3396 23.5Z" fill="#0E60E2"/>
<path d="M38.0798 29.6003C35.0598 29.6003 32.4998 27.3603 32.2598 24.4803C32.0998 22.8203 32.6998 21.2004 33.8998 20.0204C34.8998 18.9804 36.3198 18.4004 37.8198 18.4004H41.9998C43.9798 18.4604 45.4998 20.0203 45.4998 21.9403V26.0604C45.4998 27.9804 43.9799 29.5403 42.0599 29.6003H38.0798ZM41.9398 21.4004H37.8398C37.1398 21.4004 36.4999 21.6604 36.0399 22.1404C35.4599 22.7004 35.1798 23.4603 35.2598 24.2203C35.3598 25.5403 36.6398 26.6003 38.0798 26.6003H41.9998C42.2598 26.6003 42.4998 26.3604 42.4998 26.0604V21.9403C42.4998 21.6403 42.2598 21.4204 41.9398 21.4004Z" fill="#0E60E2"/>
<path d="M32.0005 42.5H27.0005C26.1805 42.5 25.5005 41.82 25.5005 41C25.5005 40.18 26.1805 39.5 27.0005 39.5H32.0005C37.1605 39.5 40.5005 36.16 40.5005 31V29.6H38.0804C35.0604 29.6 32.5005 27.36 32.2605 24.48C32.1005 22.82 32.7005 21.2 33.9005 20.02C34.9005 18.98 36.3204 18.4 37.8204 18.4H40.4805V17C40.4805 12.32 37.7405 9.09996 33.3005 8.57996C32.8205 8.49996 32.4005 8.5 31.9805 8.5H13.9805C13.5005 8.5 13.0404 8.53998 12.5804 8.59998C8.18044 9.15998 5.48047 12.36 5.48047 17V21C5.48047 21.82 4.80047 22.5 3.98047 22.5C3.16047 22.5 2.48047 21.82 2.48047 21V17C2.48047 10.84 6.28054 6.38001 12.1805 5.64001C12.7205 5.56001 13.3405 5.5 13.9805 5.5H31.9805C32.4605 5.5 33.0805 5.52 33.7205 5.62C39.6205 6.3 43.4805 10.78 43.4805 17V19.9C43.4805 20.72 42.8005 21.4 41.9805 21.4H37.8204C37.1204 21.4 36.4805 21.66 36.0205 22.14C35.4405 22.7 35.1605 23.46 35.2405 24.22C35.3405 25.54 36.6205 26.6 38.0605 26.6H42.0005C42.8205 26.6 43.5005 27.28 43.5005 28.1V31C43.5005 37.88 38.8805 42.5 32.0005 42.5Z" fill="#0E60E2"/>
</svg>
