<svg width="32" height="32" viewBox="0 0 32 32" fill="none" xmlns="http://www.w3.org/2000/svg">
<path d="M14.4795 6.28282C14.9584 4.80872 17.0439 4.80872 17.5228 6.28282L19.2341 11.5497C19.4483 12.2089 20.0627 12.6553 20.7558 12.6553H26.2938C27.8437 12.6553 28.4882 14.6387 27.2342 15.5497L22.7539 18.8048C22.1932 19.2122 21.9585 19.9344 22.1727 20.5937L23.884 25.8605C24.363 27.3346 22.6758 28.5604 21.4219 27.6494L16.9416 24.3943C16.3808 23.9868 15.6215 23.9868 15.0607 24.3943L10.5804 27.6494C9.32648 28.5604 7.63931 27.3346 8.11827 25.8605L9.82958 20.5937C10.0438 19.9344 9.80913 19.2122 9.24835 18.8048L4.76808 15.5497C3.51414 14.6387 4.15858 12.6553 5.70854 12.6553H11.2465C11.9396 12.6553 12.5539 12.2089 12.7681 11.5497L14.4795 6.28282Z" fill="#FABA23"/>
</svg>
