<svg width="48" height="48" viewBox="0 0 48 48" fill="none" xmlns="http://www.w3.org/2000/svg">
<path d="M7.87512 13.5H40.1251" stroke="white" stroke-width="2.27344" stroke-linecap="round" stroke-linejoin="round"/>
<path d="M7.87512 22.5H40.1251" stroke="white" stroke-width="2.27344" stroke-linecap="round" stroke-linejoin="round"/>
<path d="M40.1249 35.9996H7.87492V11.9996C7.87244 11.4079 7.98714 10.8216 8.21241 10.2745C8.43767 9.72746 8.76905 9.2304 9.18741 8.81204C9.60576 8.39368 10.1028 8.06231 10.6499 7.83704C11.197 7.61177 11.7833 7.49707 12.3749 7.49955H35.6249C36.2166 7.49707 36.8028 7.61177 37.3499 7.83704C37.897 8.06231 38.3941 8.39368 38.8124 8.81204C39.2308 9.2304 39.5622 9.72746 39.7874 10.2745C40.0127 10.8216 40.1274 11.4079 40.1249 11.9996V35.9996Z" stroke="white" stroke-width="2.27344" stroke-linecap="round" stroke-linejoin="round"/>
<path d="M40.125 36V40.5C40.125 40.8978 39.967 41.2794 39.6857 41.5607C39.4044 41.842 39.0228 42 38.625 42H34.125C33.7272 42 33.3456 41.842 33.0643 41.5607C32.783 41.2794 32.625 40.8978 32.625 40.5V36" stroke="white" stroke-width="2.27344" stroke-linecap="round" stroke-linejoin="round"/>
<path d="M15.3751 36V40.5C15.3751 40.8978 15.2171 41.2794 14.9358 41.5607C14.6545 41.842 14.2729 42 13.8751 42H9.37512C8.9773 42 8.59577 41.842 8.31446 41.5607C8.03316 41.2794 7.87512 40.8978 7.87512 40.5V36" stroke="white" stroke-width="2.27344" stroke-linecap="round" stroke-linejoin="round"/>
<path d="M32.25 31.125C33.2855 31.125 34.125 30.2855 34.125 29.25C34.125 28.2145 33.2855 27.375 32.25 27.375C31.2145 27.375 30.375 28.2145 30.375 29.25C30.375 30.2855 31.2145 31.125 32.25 31.125Z" fill="white"/>
<path d="M15.75 31.125C16.7855 31.125 17.625 30.2855 17.625 29.25C17.625 28.2145 16.7855 27.375 15.75 27.375C14.7145 27.375 13.875 28.2145 13.875 29.25C13.875 30.2855 14.7145 31.125 15.75 31.125Z" fill="white"/>
</svg>
