<svg width="48" height="48" viewBox="0 0 48 48" fill="none" xmlns="http://www.w3.org/2000/svg">
<path fill-rule="evenodd" clip-rule="evenodd" d="M24.1159 4.00016C17.0927 3.97194 10.5711 7.61369 6.92119 13.5999C3.27082 19.5868 3.02577 27.045 6.27531 33.258L6.64295 33.9747C6.7835 34.2381 6.81061 34.5223 6.72917 34.785C6.20408 36.1726 5.74273 37.6711 5.3746 39.1936L5.33551 39.5215C5.33551 41.0524 6.15231 42.1042 7.77342 42.0682L8.04335 42.0358C9.51595 41.7106 10.9662 41.2916 12.3852 40.7814C12.5733 40.7339 12.8814 40.7523 13.1594 40.8661L14.5245 41.6386C14.5276 41.6481 14.5299 41.6552 14.5442 41.6636L14.6358 41.6956C21.9859 45.5604 30.9624 44.4942 37.1994 39.0154C43.4373 33.5359 45.6399 24.7799 42.7351 17.0074C39.8306 9.23573 32.423 4.06121 24.1159 4.00016ZM23.535 6.79777L24.0968 6.78898C31.2462 6.84336 37.6217 11.2969 40.121 17.9844C42.6201 24.6711 40.7252 32.2039 35.3577 36.9189L34.9173 37.2929C29.7253 41.5558 22.5165 42.415 16.4654 39.4933L15.89 39.2049L15.9146 39.2082L15.8782 39.1982L15.0336 38.7136C14.7295 38.5416 14.4882 38.4115 14.2938 38.3178C13.3674 37.9359 12.4271 37.8796 11.5427 38.1232L10.7055 38.4107C10.1522 38.5935 9.60749 38.7586 9.06551 38.9079L8.27539 39.1143L8.08717 39.8495C8.42843 38.4381 8.85612 37.049 9.36783 35.6899C9.6971 34.6363 9.59641 33.5808 9.11514 32.6802L8.75329 31.9744C5.95258 26.6195 6.1634 20.2035 9.30396 15.0527C12.3468 10.0621 17.7099 6.96444 23.535 6.79777ZM12.9492 24C12.9492 22.7396 13.9717 21.7187 15.2319 21.7187C16.4921 21.7187 17.5147 22.7396 17.5147 24C17.5147 25.2604 16.4921 26.2813 15.2319 26.2813C13.9717 26.2813 12.9492 25.2604 12.9492 24ZM21.8228 24C21.8228 22.7396 22.8453 21.7187 24.1055 21.7187C25.3657 21.7187 26.3882 22.7396 26.3882 24C26.3882 25.2604 25.3657 26.2813 24.1055 26.2813C22.8453 26.2813 21.8228 25.2604 21.8228 24ZM32.9795 21.7187C31.7193 21.7187 30.6968 22.7396 30.6968 24C30.6968 25.2604 31.7193 26.2813 32.9795 26.2813C34.2397 26.2813 35.2622 25.2604 35.2622 24C35.2622 22.7396 34.2397 21.7187 32.9795 21.7187Z" fill="white"/>
</svg>
