<svg width="48" height="48" viewBox="0 0 48 48" fill="none" xmlns="http://www.w3.org/2000/svg">
<path d="M5.99976 36.0005V24.0005C5.99976 19.2266 7.89618 14.6482 11.2718 11.2726C14.6475 7.89691 19.2259 6.00049 23.9998 6.00049C28.7737 6.00049 33.352 7.89691 36.7277 11.2726C40.1033 14.6482 41.9998 19.2266 41.9998 24.0005V36.0005" stroke="white" stroke-width="2.5" stroke-linecap="round" stroke-linejoin="round"/>
<path d="M41.9998 38C41.9998 39.0609 41.5783 40.0783 40.8282 40.8284C40.078 41.5786 39.0606 42 37.9998 42H35.9998C34.9389 42 33.9215 41.5786 33.1713 40.8284C32.4212 40.0783 31.9998 39.0609 31.9998 38V32C31.9998 30.9391 32.4212 29.9217 33.1713 29.1716C33.9215 28.4214 34.9389 28 35.9998 28H41.9998V38ZM5.99976 38C5.99976 39.0609 6.42118 40.0783 7.17133 40.8284C7.92147 41.5786 8.93889 42 9.99976 42H11.9998C13.0606 42 14.078 41.5786 14.8282 40.8284C15.5783 40.0783 15.9998 39.0609 15.9998 38V32C15.9998 30.9391 15.5783 29.9217 14.8282 29.1716C14.078 28.4214 13.0606 28 11.9998 28H5.99976V38Z" stroke="white" stroke-width="2.5" stroke-linecap="round" stroke-linejoin="round"/>
</svg>
