<svg width="48" height="48" viewBox="0 0 48 48" fill="none" xmlns="http://www.w3.org/2000/svg">
<path d="M24 9V4.5" stroke="#0E60E2" stroke-width="3.42857" stroke-linecap="round" stroke-linejoin="round"/>
<path d="M42 30.0001C39.2625 39.5626 26.5875 42.9001 24.3375 43.4251C24.116 43.4814 23.884 43.4814 23.6625 43.4251C21.4125 42.9001 8.7375 39.5626 6 30.0001V23.5876C5.99997 23.2717 6.09965 22.9639 6.28482 22.7081C6.47 22.4522 6.73122 22.2613 7.03125 22.1626L23.5312 16.6501C23.8367 16.5561 24.1633 16.5561 24.4688 16.6501L40.9688 22.1626C41.2688 22.2613 41.53 22.4522 41.7152 22.7081C41.9003 22.9639 42 23.2717 42 23.5876V30.0001Z" stroke="#0E60E2" stroke-width="3.42857" stroke-linecap="round" stroke-linejoin="round"/>
<path d="M24 31.5002V16.5752" stroke="#0E60E2" stroke-width="3.42857" stroke-linecap="round" stroke-linejoin="round"/>
<path d="M10.5 21V10.5C10.5 10.1022 10.658 9.72064 10.9393 9.43934C11.2206 9.15804 11.6022 9 12 9H36C36.3978 9 36.7794 9.15804 37.0607 9.43934C37.342 9.72064 37.5 10.1022 37.5 10.5V21" stroke="#0E60E2" stroke-width="3.42857" stroke-linecap="round" stroke-linejoin="round"/>
</svg>
