<svg width="48" height="48" viewBox="0 0 48 48" fill="none" xmlns="http://www.w3.org/2000/svg">
<path d="M31.02 5.66016H16.98C12 5.66016 10.9 8.14016 10.26 11.1802L8 22.0002H40L37.74 11.1802C37.1 8.14016 36 5.66016 31.02 5.66016Z" stroke="#0E60E2" stroke-width="3" stroke-linecap="round" stroke-linejoin="round"/>
<path d="M43.9814 39.64C44.2014 41.98 42.3214 44 39.9214 44H36.1614C34.0014 44 33.7014 43.08 33.3214 41.94L32.9214 40.74C32.3614 39.1 32.0014 38 29.1214 38H18.8814C16.0014 38 15.5814 39.24 15.0814 40.74L14.6814 41.94C14.3014 43.08 14.0014 44 11.8414 44H8.08143C5.68143 44 3.80143 41.98 4.02143 39.64L5.14143 27.46C5.42143 24.46 6.00143 22 11.2414 22H36.7614C42.0014 22 42.5814 24.46 42.8614 27.46L43.9814 39.64Z" stroke="#0E60E2" stroke-width="3" stroke-linecap="round" stroke-linejoin="round"/>
<path d="M8 16H6" stroke="#0E60E2" stroke-width="3" stroke-linecap="round" stroke-linejoin="round"/>
<path d="M42 16H40" stroke="#0E60E2" stroke-width="3" stroke-linecap="round" stroke-linejoin="round"/>
<path d="M24 6V10" stroke="#0E60E2" stroke-width="3" stroke-linecap="round" stroke-linejoin="round"/>
<path d="M21 10H27" stroke="#0E60E2" stroke-width="3" stroke-linecap="round" stroke-linejoin="round"/>
<path d="M12 30H18" stroke="#0E60E2" stroke-width="3" stroke-linecap="round" stroke-linejoin="round"/>
<path d="M30 30H36" stroke="#0E60E2" stroke-width="3" stroke-linecap="round" stroke-linejoin="round"/>
</svg>
