<svg width="48" height="48" viewBox="0 0 48 48" fill="none" xmlns="http://www.w3.org/2000/svg">
<path d="M10.9434 18C14.8094 18 17.9434 14.866 17.9434 11C17.9434 7.13401 14.8094 4 10.9434 4C7.07737 4 3.94336 7.13401 3.94336 11C3.94336 14.866 7.07737 18 10.9434 18Z" stroke="#0E60E2" stroke-width="3"/>
<path d="M33.9434 30H39.9434C42.1434 30 43.9434 31.8 43.9434 34V40C43.9434 42.2 42.1434 44 39.9434 44H33.9434C31.7434 44 29.9434 42.2 29.9434 40V34C29.9434 31.8 31.7434 30 33.9434 30Z" stroke="#0E60E2" stroke-width="3"/>
<path d="M24.0014 10H29.3614C33.0614 10 34.7814 14.58 32.0014 17.02L16.0214 31C13.2414 33.42 14.9614 38 18.6414 38H24.0014" stroke="#0E60E2" stroke-width="3" stroke-linecap="round" stroke-linejoin="round"/>
<path d="M10.9695 11H10.9926" stroke="#0E60E2" stroke-width="4" stroke-linecap="round" stroke-linejoin="round"/>
<path d="M36.9695 37H36.9926" stroke="#0E60E2" stroke-width="4" stroke-linecap="round" stroke-linejoin="round"/>
</svg>
