<svg width="48" height="48" viewBox="0 0 48 48" fill="none" xmlns="http://www.w3.org/2000/svg">
<path d="M42.021 22.4395V31.4194C42.021 40.3994 38.4409 43.9995 29.4409 43.9995H18.661C17.501 43.9995 16.4409 43.9396 15.4609 43.7996" stroke="#0E60E2" stroke-width="3" stroke-linecap="round" stroke-linejoin="round"/>
<path d="M6.07812 31.0396V22.4395" stroke="#0E60E2" stroke-width="3" stroke-linecap="round" stroke-linejoin="round"/>
<path d="M24.0598 24C27.7198 24 30.4198 21.0201 30.0598 17.3601L28.7197 4H19.3798L18.0398 17.3601C17.6798 21.0201 20.3998 24 24.0598 24Z" stroke="#0E60E2" stroke-width="3" stroke-linecap="round" stroke-linejoin="round"/>
<path d="M36.6606 24C40.7006 24 43.6606 20.72 43.2606 16.7L42.7006 11.2C41.9806 5.99995 39.9806 4 34.7406 4H28.6406L30.0406 18.02C30.4006 21.32 33.3606 24 36.6606 24Z" stroke="#0E60E2" stroke-width="3" stroke-linecap="round" stroke-linejoin="round"/>
<path d="M11.3396 24C14.6396 24 17.6196 21.32 17.9396 18.02L18.3796 13.6001L19.3396 4H13.2396C7.99961 4 5.99965 5.99995 5.27965 11.2L4.71959 16.7C4.31959 20.72 7.29959 24 11.3396 24Z" stroke="#0E60E2" stroke-width="3" stroke-linecap="round" stroke-linejoin="round"/>
<path d="M18 38C18 39.5 17.58 40.9201 16.84 42.1201C16.46 42.7601 16 43.34 15.46 43.8C15.4 43.88 15.34 43.94 15.26 44C13.86 45.26 12.02 46 10 46C7.56 46 5.37994 44.8999 3.93994 43.1799C3.89994 43.1199 3.84005 43.08 3.80005 43.02C3.56005 42.74 3.34003 42.4401 3.16003 42.1201C2.42003 40.9201 2 39.5 2 38C2 35.48 3.16 33.22 5 31.76C5.34 31.48 5.69996 31.24 6.07996 31.04C7.23996 30.38 8.58 30 10 30C12 30 13.8 30.7199 15.2 31.9399C15.44 32.1199 15.66 32.3401 15.86 32.5601C17.18 34.0001 18 35.9 18 38Z" stroke="#0E60E2" stroke-width="3" stroke-miterlimit="10" stroke-linecap="round" stroke-linejoin="round"/>
<path d="M12.9795 37.96H7.01953" stroke="#0E60E2" stroke-width="3" stroke-miterlimit="10" stroke-linecap="round" stroke-linejoin="round"/>
<path d="M10 35.04V41.02" stroke="#0E60E2" stroke-width="3" stroke-miterlimit="10" stroke-linecap="round" stroke-linejoin="round"/>
</svg>
